<svg xmlns="http://www.w3.org/2000/svg" width="359" height="539" viewBox="3930.5 1740.5 359 539"><g id="g13574" transform="translate(3930 1227.64)"><rect id="rect13576" width="359" height="539" x=".5" y="512.86" rx="29.944" style="fill:#fff;stroke:#000;stroke-linecap:round;stroke-linejoin:round"/><path id="path13578" d="M20 542.36v50h10c5.54 0 10-4.46 10-10v-10c0-3-1.323-5.67-3.406-7.5 2.083-1.83 3.406-4.496 3.406-7.5v-5c0-5.54-4.46-10-10-10h-5zm5 5h5c2.77 0 5 2.23 5 5v5c0 2.77-2.23 5-5 5h-5zm0 20h5c2.77 0 5 2.23 5 5v10c0 2.77-2.23 5-5 5h-5z"/><path id="path13580" d="M340 1022.36v-50h-10c-5.54 0-10 4.46-10 10v10c0 3 1.323 5.67 3.406 7.5-2.083 1.83-3.406 4.496-3.406 7.5v5c0 5.54 4.46 10 10 10h5zm-5-5h-5c-2.77 0-5-2.23-5-5v-5c0-2.77 2.23-5 5-5h5zm0-20h-5c-2.77 0-5-2.23-5-5v-10c0-2.77 2.23-5 5-5h5z"/><g id="g13582" style="fill:none;stroke:#000;stroke-width:2;stroke-linecap:round;stroke-linejoin:round" transform="translate(0 512.36)"><path id="path13584" d="M50 30h280v380"/><path id="path13586" d="M310 510H30V130"/><path id="path13588" d="M30 270h300"/></g><g id="g13590" transform="matrix(1 0 0 .99584 0 3.01)"><g id="g13592" style="stroke:#000"><g id="g13594" transform="translate(0 512.36)"><path id="path13596" d="m139.12 269.35-1.237-15.91-1.237-1.414-15.38 8.662-1.237 8.485z" style="fill:#555"/><path id="path13598" d="m274.75 123 8.875 63.25 1.625-.625L288 184.5l2.375-1.125 1-1.125L283.75 121z" style="fill:#fa5;stroke-linecap:round;stroke-linejoin:round"/></g><g id="g13600" style="stroke-linecap:round;stroke-linejoin:round"><path id="path13602" d="M120.25 542.61c-3.328 1.442-7.267 2.824-9 6.25-1.315 2.598 2.164 6.116-.38 7.951-2.955 2.131-2.91 5.941-2.601 9.01.324 3.221 2.676 6.348 5.814 7.301 1.625.493 2.858 1.375 1.146 2.928-2.463 2.233.157 5.987 2.271 8.06 1.56 1.528 3.207 1.218 5.471 1.195 1.923-.019-1.787 3.949.707 5.777 2.643 1.937 6.087 3.757 9.286 2.607 2.806-1.01 4.673-3.646 5.286-6.33.469-2.054.619-2.112.817-.093.195 1.991 4.148 2.61 4.622-.297.543-3.334 2.02-6.46 2.311-9.86.199-2.342 1.499-4.801.902-7-.579-2.135-1.498-3.294-.47-5.634 1.413-3.217-3.803-6.03-2.435-9.609 1.276-3.339 3.945-5.885 6.752-8.01 2.035-1.538 3.987-3.184 6-4.75l-36.5.5z" style="fill:#aaa"/><g id="g13604" style="fill:none"><path id="path13606" d="M151.25 546.11c-3.579-1.108-7.354-1.541-11.08-.727-5.83 1.273-11.663 3.32-16.302 7.04-2.541 2.037-3.362 5.501-3.581 8.745-.345 5.085-.628 10.351.998 15.195.872 2.599 3.091 4.841 5.616 5.91 2.628 1.113 4.726-1.894 4.983-4.512.225-2.291 2.534 2.978 4.958 1.803 2.24-1.086 3.397-3.657 3.995-5.861.227-.837.158-1.727.166-2.593"/><path id="path13608" d="M132 545.61c-2.662-.985-5.97-.685-7.75 1.75-.945 1.293-1.198 2.957-1.5 4.5"/><path id="path13610" d="M120 549.11c-2.811 1.348-6.446 2.652-7.5 5.75-.83 2.441.651 5.123 1.791 7.353.59 1.155 1.713 1.707 2.959 1.897"/><path id="path13612" d="M113.31 563.86c-.876 3.01-.641 6.34 1.898 8.809 1.724 1.676 3.033 3.869 5.541 3.441"/><path id="path13614" d="M124.75 586.61c2.348.967 5.089 1.035 7.178-.893 1.757-1.62.591-6.33 3.943-4.222 2.841 1.787 5.743-.968 6.558-3.548.389-1.229.694-2.538.571-3.837"/><path id="path13616" d="M126.75 590.11c1.852 1.605 4.421 1.808 6.48.035 1.936-1.667 1.148-4.983 3.058-5.689 2.091-.772 4.967.012 6.071-2.262.608-1.252 1.186-2.518 1.64-3.834"/><path id="path13618" d="M141.25 547.86c-.872 1.912-1.852 4.238-.396 6.226.804 1.098 1.052 2.651 2.396 3.274"/><path id="path13620" d="M137.25 551.11c-1.191 2.313-2.354 5.67-.366 7.737 1.326 1.379 3.698 2.204 5.616 1.513"/><path id="path13622" d="M133 552.61c-.808 2.865-.748 6.222 1.406 8.513 1.288 1.37 2.862 3.034 4.844 2.987.902-.021 4.27-2.577 2.984-.752-1.338 1.898-4.104 3.276-2.538 5.646 1.309 1.981 3.886 3.492 6.304 2.606"/><path id="path13624" d="M127.75 555.86c-1.512 2.636-.391 5.319 2 7.25 1.874 1.514 3.836 3.123 6.293 2.685.401-.071.806-.112 1.207-.185"/><path id="path13626" d="M126.25 563.86c-.164 2.96 2.157 4.633 4.797 5.486 2.16.698 4.687.736 6.453-.736"/><path id="path13628" d="M125 569.61c.656 2.738 2.532 4.944 5.25 6 3.216 1.25 7.137-.524 8.5-3.25l.25-.5"/><path id="path13630" d="M117.75 577.11c-1.052 2.959 2.183 5.75 5 5.25.631-.112 1.195-.443 1.75-.75"/><path id="path13632" d="M150 547.11c-3.257-.386-6.513-.189-9.75.5-5.608 1.194-11.358 3.034-15.545 7.06-2.776 2.669-2.629 6.805-3.329 10.337-.696 3.513 1.267 6.665 1.721 10.05.336 2.503 2.174 4.996 4.652 5.309 1.629.206 3.089-1.241 4.5-2"/></g></g><g id="g13634" style="stroke-linecap:round;stroke-linejoin:round"><path id="path13636" d="M137.62 665.62c1.054 3.82 1.915 5.274 3.447 8.927 10.65 1.032 21.578 2.828 32.26 3.403 10.707.577 21.49.518 32.17-.428 5.558-.492 10.985-1.912 16.389-3.335a47 47 0 0 0 4.748-1.541v-7.778c-1.718-1.441-3.726-2.728-4.486-4.988-.534-1.588-.772-3.239-2.229-4.379-1.29-1.01-3.03-1.075-4.393-2.02-1.142-.79-3.384.094-4.01-1.01-1.544-2.736-3.43-5.302-4.178-8.326-.312-1.261-.588-2.922.127-4.01.88-1.336 2.782-2.398 2.872-3.947.222-3.845-2.663-7.414-2.09-11.274.19-1.283 1.791-2.399.601-3.62-.548-.562-2.532-2.49-2.716-1.228-1.438 6.128-3.616 12.04-6.04 17.835-1.349 3.226-3.318 6.17-5.147 9.143-1.253 2.038-2.896 3.676-4.641 5.297-1.849 1.717-3.893 3.32-6.275 4.04-2.225.671-4.736.679-6.995.177-1.985-.441-3.991-.903-5.565-2.33-1.799-1.63-3.369-2.907-4.517-5.201-.745-1.489-1.818-4.176-2.374-5.958-1.965-1.408-3.706-1.656-5-3.695-.895-1.411-3.08-2.986-4.187-4.206-1.134.994-.742 3.352-1.293 4.707-.705 1.735-2.282.333-3.236 1.413-1.647 1.866-1.011 4.41-1.141 6.645-.151 2.602-.855 5.687-3.346 7.03-1.075.582-1.961 2.297-3.265 1.891-1.347-.419-1.346-2.714-3.03-1.546-1.621 1.127-1.402 3.467-2.543 5.05-.769 1.068-.066.557-1.138 1.893.185.594.977 2.304 1.222 3.36z" style="fill:#fff"/><path id="path13638" d="m142.47 166.41 12.28 1.088 14.25 1.25 9.25.25H187l10.5-.5 8.75-.5 7.25-1 5.75-1.75 4.75-1.5 2-.25-2.024 17.555-2.475 17.943-2.033 12.286-4.066 15.998-5.127 17.678-4.154 14.14-.265 1.149-10.783.53-11.579.265h-11.05l-4.508-11.05-4.596-14.672-3.801-13.789-4.861-13.877-3.889-12.728-3.094-11.225-2.475-9.458z" style="fill:#fa5" transform="translate(0 512.36)"/><path id="path13640" d="M146.25 582.36c-3.093 0-2.967 5.484-4.876 7.905-1.324 1.679-2.964 3.055-3.809 5.099-.495 1.198-.83 2.285-.815 3.589.022 1.94.61 3.917 1.781 5.407.875 1.114-.4 2.02-.858 2.962-.55 1.129-1.193 2.691-2.357 3.038-1.076.32-2.141-.122-2.978.912-.765.946-1.416 1.75-1.862 2.911-.642 1.669-.725 3.45.024 4.927.493.972 5.084 3 6.135 2.759 1.882-.432-1.968-.466-2.526.664-.489.99-2.18.632-3.041 1.422-1.059.973-2.313 1.698-2.81 3.138-.544 1.576-1.322 3.225-1.258 4.885.058 1.526.107 3.15-.436 5.621-1.226-1.103-.972-2.258-3.79-2.148-1.57.061-2.878 2.02-3.525 3.409-.698 1.499.462 3.205 1.317 4.598.699 1.139 1.657 1.637-.287 1.515-1.194-.075-2.105.45-3.139 1.088-1.438.887-2.045 2.323-2.391 3.799-.267 1.137-.213 2.342.7 3.356 1.227 1.363 2.344 2.773 3.965 3.585.85.426 2.286-.837 2.658.672.358 1.453.735 2.856 1.969 3.93.886.771 1.68 1.293 2.808 1.644 1.648.512 3.158-.309 4.686-.726 1.49-.407 2.807.87 4.32.54.983-.214 1.057-1.855 1.556-2.71.922-1.581 1.441-3.434 2.48-4.931.981-1.415.787.007 1.861.924 1.216 1.039 3.593.443 4.826-.269 2.124-1.227 1.696-2.786 2.423-5.01.689-2.114.354-3.999.863-6.134.288-1.209.143-3.119 1.137-3.866.853-.64 2.103.306 2.836-.938.658-1.117.455-2.198.808-3.178 1.547-.6.77-1.618.063-2.623-1.126-1.811-2.151-3.634-2.698-5.733-1.37-5.25-3.758-10.285-4.521-15.647-.563-3.958-.271-7.979-.834-11.949-.452-3.189-.098-6.446-.311-9.667-.193-2.917-.075-5.843-.093-8.765z" style="fill:#a55"/><path id="path13642" d="M147.01 569.05c-.361 1.498-.345 1.435-.462 3.166-.354 5.255-1.126 6.514-1.503 11.763-.274 5.355-.255 13.216.017 18.563.397 4.87 1.786 10.491 2.848 15.271.734 3.764 2.173 6.194 3.314 9.849 1.016 2.033 1.496 4.425 2.869 6.219 2.816 2.329 4.093 4.216 6.223 7.107 1.322 1.074 2.56 1.587 4.481 2.095.159 1.864.939 4.565 1.55 5.591.51 1.399 1.784 2.518 2.849 3.537 2.139 1.31 4.186 2.883 6.388 4.02 2.564.148 5.172.915 7.658-.068 3.27-.488 5.658-3.03 7.993-5.17 2.416-2.062 4.07-4.852 5.959-7.365 3.364-7.519 8.427-15.169 10.895-23.03.63-1.353 1.031-2.652-.531-3.487-.753-1.039-2.537-1.689-2.02-3.209.835-1.793-1.133-1.872-1.348-3.286-1.207-1.701 1.67-1.799 1.334-3.384.022-2.662.801-5.249 1.338-7.813.249-1.497-.848-2.518-1.394-3.713-.196-1.886.212-3.679.884-5.432.593-1.83-.928-2.073-2.092-2.925-1.583-.65-.992-2.136-1.601-3.316-.793-1.35.137-3.048.08-4.55-.017-1.234-.543-2.01-.963-3.328-.25-1.263-.364-1.178-.664-3.176-2.861-.9-6.665-1.825-9.125-2.852-3.957-2.297-8.122-3.157-12.383-3.484-4.346-.756-9.13-.297-13.525-.282a102 102 0 0 0-13.574 2.507c-1.05.267-1.613.105-2.682.313z" style="fill:#faa"/><g id="g13644" style="fill:none"><path id="path13646" d="M146.26 583.27c.678-.917 1.952-.77 2.806-1.431 1.339-1.035 3.135-.847 4.732-.903 1.878-.065 3.803.135 5.547.83 1.067.425 2.041 1.212 2.648 2.189.493.794.396 1.816.521 2.729.055.405.079.814.143 1.219"/><path id="path13648" d="M162.66 587.33c.355 3.695.275 4.921.031 8.104-.178 2.317-.255 3.039-.406 5.338-.065.989-.122 2.948-.417 3.879-.286.903-.618 2.916-.586 3.858.033.962-.026 2.947 1.021 3.361 1.428.564 2.442-.3 3.844.242.646.25 1.609.995 2.159.599 1.042-.751 1.531-.086 2.462-.944.528-.487 1.367-1.109 2.058-.907 1.01.294 2.108 1.124 3.02.619.602-.333 1.052-1.374.258-1.901-.087-.057-.781-1.355-.85-1.431"/><path id="path13650" d="M172.26 585.02c.871-.934 1.416-2.304 2.569-2.864a10.9 10.9 0 0 1 4.959-1.069c2.343.045 4.688-.243 7.02.112 1.205.184 2.564-.128 3.653.349 1.234.54 1.772.332 3.173 1.157"/></g></g><g id="g13652" style="fill:#f55;stroke-width:1.02499998" transform="matrix(1.06615 0 0 .89639 -10.607 62.55)"><path id="path13654" d="M161.28 623.32c.327-.822 1.467-1.054 2.222-1.539.556-.345.902-.978 1.689-1.01.882-.092 1.95.015 2.475.678.532.402 1.583.343 1.591-.288.446-.305 1.586-.267 2.095-.243 1.415.244 2.07.757 3.329 1.338.521.217 1.315.387 1.35.96-.211.643-1.362.455-1.736 1.025-.825.802-1.311.933-2.203 1.694-.671.705-1.456 1.469-2.608 1.592-1.369.179-2.753-.084-4.08-.348-.869-.197-1.774-.602-2.059-1.356-.233-.649-.749-.305-1.189-.863a13 13 0 0 1-.88-1.485l-.009-.078.014-.078z"/><path id="path13656" d="M161.59 623.93c.943-.071 1.896-.076 2.822-.287.766-.213 1.039.719 1.714.833.998.26 2.069.418 3.089.203.656-.207 1.168-.7 1.794-.977.633-.432 1.422-.522 2.16-.358.827.054 1.594.438 2.422.46.172-.011.338-.07.5-.125"/></g><g id="g13658" style="stroke-linecap:round;stroke-linejoin:round"><g id="g13660" style="fill:none"><path id="path13662" d="M165.29 131.06s3.055.579 4.596.53c2.334-.073 4.623-.698 6.894-1.237 2.213-.526 4.439-1.075 6.541-1.945 2.29-.947 4.469-2.176 6.541-3.536 1.754-1.151 3.442-2.43 4.95-3.889 1.382-1.338 2.551-2.885 3.712-4.419 1.075-1.42 2.179-2.841 3.01-4.419.761-1.454 1.768-4.596 1.768-4.596" transform="translate(0 512.36)"/><path id="path13664" d="M148.91 589.85c.479-.768.682-1.782 1.399-2.34.879-.684 1.911-1.451 3.03-1.539 1.864-.147 3.701.441 5.539.794.66.127.829.807 1.252 1.198.425.393.036.047.053.07l.038.05"/><path id="path13666" d="M175.1 589.29c.367-.708.47-1.724 1.062-2.172.995-.754 2.14-1.386 3.319-1.605a8 8 0 0 1 3.282.094c1.777.42 3.637.709 5.282 1.536.595.299.962.983 1.442 1.474"/></g><g id="g13668" transform="matrix(1.06615 0 0 1 -11.807 0)"><path id="path13670" d="M150.47 592.12c1.368-.571 1.979-2.078 3.474-2.349 1.847-.335 3.716-.235 5.581-.384 1-.08 1.996.566 2.987.706-.199.756-.281 1.538-.893 2.131-.814.788-1.098 1.287-2.023 1.917-.913.621-2.01 1.132-3.11 1.252-.804.088-1.73.236-2.447-.094-.792-.364-1.679-.716-2.243-1.347-.734-.822-.628-.981-1.326-1.831z" style="fill:#fff;stroke-width:.97100002"/><g id="g13672" style="stroke-dashoffset:1"><path id="path13674" d="M157.5 80a2.125 1.875 0 1 1-4.25 0 2.125 1.875 0 1 1 4.25 0" style="fill:#a50;stroke-width:.801" transform="matrix(1 0 0 1.46667 1.5 474.9)"/><path id="path13676" d="M156.625 79.625a.563 1 0 1 1-1.125 0 .563 1 0 1 1 1.125 0" style="stroke-width:.97100002" transform="translate(1 512.36)"/></g></g><g id="g13678" transform="matrix(.96664 -.19269 .18982 .98126 -107.5 46.549)"><path id="path13680" d="M176.48 589.21c1.152-.272 2.274-.822 3.448-.884 1.711-.09 1.425-.044 3.125.243 1.449.244 2.98.196 4.357.717.985.372 2 .801 2.824 1.464.522.42.929.977 1.393 1.465-.792.522-1.464 1.352-2.351 1.63-1.338.419-2.712.739-4.131.668-1.065-.053-2.121.005-3.165-.284-1.558-.431-1.271-.445-2.708-1.187-.731-.377-1.432-.978-1.855-1.696-.392-.667-.625-1.424-.938-2.136z" style="fill:#fff;stroke-width:1.00999999"/><g id="g13682" style="stroke-dashoffset:1"><path id="path13684" d="M187.375 79.313a3 2.688 0 1 1-6 0 3 2.688 0 1 1 6 0" style="fill:#a50;stroke-width:1.04200006" transform="matrix(.91667 0 0 1.02326 15.11 510.46)"/><path id="path13686" d="M185.25 78.875a.75 1.25 0 1 1-1.5 0 .75 1.25 0 1 1 1.5 0" style="stroke-width:1.00999999" transform="translate(0 512.36)"/></g></g></g><g id="g13688" style="fill:#a55"><path id="path13690" d="M164.73 613.02c-1.261 0-1.476 1.615-2.607 2.23-.909.494-1.609.494-2.652 1.854-.819 1.067-2.329 1.364-3.257 2.305-.481.487-1.93-.245-2.203.417-.27.655-.456 1.621.306 1.591.445-.018 1.28.457 1.65.177s.394-.326.959-.376c.895-.079 1.743-.613 2.64-.597.507.009.884.63 1.434.456.637-.202 1.406.002 1.971-.368 1.074-.705 1.859-1.4 3.089-1.59 1.054-.163 1.183-2.437 2.257-2.361.458.033.445.245 1.131-.045.474-.201 1.506 1.853 1.998 1.787.753-.101 1.503.013 2.235.274.701.249 1.2.945 1.877 1.277.463.227.847.627 1.407.524.66-.121 1.324-.193 1.984.118.477.225.972.577 1.516.28.751-.41 1.516-.517 2.333-.513 1.325.006 2.629.471 3.956.387.485-.031 1.42-1.076 1.608-1.551.149-.377-.597-1.302-1.059-.84-1.217 1.216-2.073.803-3.323.398-.862-.279-2.17-.668-2.998-1.121-.745-.408-.735-1.113-1.441-1.579-1.044-.69-2.229-.437-3.331-1.045-.685-.379-1.718-2.069-2.448-2.269-1.185-.324-1.732.134-2.928.004-.486-.053-.905-.445-1.408-.161-.892.504-1.897.884-2.886.848-.621-.023-1.187-.511-1.809-.511z"/><path id="path13692" d="M200.25 574.86c-2.779 0 1.155 5.581.417 8.216-.378 1.351-.27 2.491.458 3.804.915 1.649 2.994 2.139 3.5 3.802.652 2.144-1.478 4.554-.89 6.687.376 1.365 1.395 2.354 1.265 3.863-.208 2.414-1.969 4.505-1.5 6.99.277 1.467-1.304 2.063-1.01 3.402.277 1.26 2.01 2.159 1.496 3.261-.701 1.505.593 2.558 1.504 3.439 1.222 1.413.969 1.755 2.01 2.409 1.454.827 2.445 1.945 2.031 3.616-.311 1.257-1.257 2.248-1.031 3.683.319 2.026.018 4.344 1 6.121.769 1.385.719.798-.322 2.096-1.383 1.725-1.595 4.086-2.088 6.206-.322 1.384.901 3.838 1.633 5.101.812 1.402 1.679 2.474 1.897 4.331.214 1.827 3.256.734 4.75 1.472 1.553.767 2.688 1.818 4.375 2.208 1.876.434 1.525 2.875 2.142 4.419.611 1.529 1.775 2.85 3.108 3.798 1.907 1.357 4.494 1.918 6.92 1.16 2.122-.663 4.103-1.45 5.939-2.785.86-.625 2.583.441 3.01 1.659.491 1.405 2.299 1.787 3.632 2.297 1.34.512 3.203.236 3.745-1.101.634-1.562 2.01-.226 3.03-.234 1.129-.009 2.413-1.107 3.037-1.999 1.782-2.548 1.198-5.752 1.065-8.66-.094-2.049-.727-4.31-2.06-5.907-1.115-1.336-2.156-3.393-3.872-3.639-1.906-.274-1.522-1.178-1.694-2.624-.202-1.702-.382-3.48-1.8-4.775-1.409-1.286-2.862-2.647-4.919-2.462-1.35.121-.061-2.331-.405-3.312-.699-1.993-1.41-4.01-3.086-5.458-1.038-.894-2.838-1.192-3.459-2.357-.665-1.247-.318-2.6.043-3.991.345-1.329 1.421-2.084 1.34-3.585-.147-2.737.117-5.565-1.307-8.05-.719-1.254-2.344-1.554-3.523-2.305-2.261-1.441-4.603-2.89-6.132-5.04-1.413-1.987-1.085-4.699-1.258-7.105-.109-1.516-1.791-2.359-2.801-3.426-2.499-2.639-4.199-5.84-6.451-8.658-1.134-1.419-2.342-3.03-3.834-4-1.796.041-3.475-.252-5.126-1.031-1.512-.713-3.163-1.098-4.78-1.536z"/></g></g><path id="path13694" d="M187.06 705.11s-1.07 3.465-2 5c-.796 1.314-1.867 2.463-3 3.5-1.058.968-2.343 1.653-3.5 2.5-1.345.984-2.932 1.72-4 3-1.194 1.431-2.5 3.137-2.5 5 0 1.491.903 2.991 2 4 1.321 1.215 3.205 2.041 5 2 2.01-.046 4.05-1.103 5.5-2.5 1.073-1.034 2-4 2-4v1c0 .5-.141 2.052-.5 3-.557 1.471-1.436 2.842-2.5 4-1.127 1.227-4 3-4 3v.5s3.979-.833 6-1c.997-.082 2-.082 3 0 2.02.167 6 1 6 1v-.5s-2.873-1.773-4-3c-1.064-1.158-1.943-2.529-2.5-4-.359-.948-.5-2.5-.5-3v-1s.927 2.966 2 4c1.45 1.397 3.487 2.454 5.5 2.5 1.795.041 3.679-.785 5-2 1.097-1.01 2-2.509 2-4 0-1.863-1.306-3.569-2.5-5-1.068-1.28-2.655-2.02-4-3-1.157-.847-2.442-1.532-3.5-2.5-1.133-1.037-2.204-2.186-3-3.5-.93-1.535-2-5-2-5"/><g id="g13696" style="stroke:#000"><g id="g13698" style="stroke-linecap:round;stroke-linejoin:round"><g id="g13700" style="fill:none" transform="translate(0 512.36)"><path id="path13702" d="M149.55 139.42s1.985 3.74 3.182 5.48c1.116 1.622 2.337 3.186 3.712 4.596 1.08 1.107 2.334 2.031 3.536 3.01 1.273 1.032 3.889 3.01 3.889 3.01s2.893-3.246 4.243-4.95c1.178-1.488 2.153-3.131 3.359-4.596.662-.805 2.121-2.298 2.121-2.298"/><path id="path13704" d="M186.85 142.78s3.715 3.366 5.657 4.95c1.434 1.17 3.02 2.323 4.331 3.624.955.945 2.563 2.917 2.563 2.917s2.622-1.846 3.889-2.828c1.389-1.077 2.838-2.101 4.066-3.359.733-.751 1.31-1.639 1.945-2.475.663-.873 1.373-1.716 1.945-2.652.412-.675 1.061-2.121 1.061-2.121"/></g><g id="g13706" style="fill:#55a"><path id="path13708" d="m121.27 658.15-14.14 4.596q8.31 22.273 16.617 44.548c1.887.11 2.881 1.672 3.613 2.738 2.165-1.161 4.73-1.043 6.749.368 1.557.67 2.703 1.671 2.897 3.435.69 2.427-2.243 1.911-2.248 3.458-.587 2.284 1.311 2.325 3.05 2.509 1.593.421 3.416.709 3.7 2.64.747 1.777-.021 3.749-.437 5.535 1.91-.155 3.02.965 3.832 2.569.57 1.91.383 3.939.411 5.916-2.838.488 1.884.801 1.024 2.823.292 1.86-.083 3.607-1.201 5.132 1.671.11 3.957-.361 3.182 2.063.152 2.425-.186 5.057-1.462 7.102-1.34.509-.945 3.71.301 3.936 1.999-.103 1.915 2.263 1.867 3.693-.561 1.855 1.415 2.656 2.944 2.409 4.631.34 9.451.238 13.851 1.834 2.098.282 1.449 3.041-.484 3.072-2.528 1.352-5.471 1.41-8.179 2.231.257 1.269-1.165 4.314 1.163 3.393 4.767-.603 9.555-.988 14.363-.82-2.57-5.807-5.04-11.652-6.889-17.734-3.217-9.256-5.01-18.953-8.539-28.11-2.523-7.04-4.889-14.14-6.759-21.387-1.82-7.101-4.38-13.982-5.974-21.14-2.513-7.583-5.359-15.05-8.05-22.569-2.664.525-5.425-.934-7.986.391-1.537 1.048-3.02-.235-4.09-1.33-1.247-.931-1.668-2.664-3.127-3.304z"/><path id="path13710" d="m226.27 152.68.177 7.425-1.061 10.96-1.591 11.667-1.768 12.374-2.121 14.319-4.066 16.09-3.889 13.965-3.359 12.374-2.798 7.998 5.096.134 7.248.354 5.834.53 3.712-13.258 4.95-17.501 3.536-13.965 3.182-15.203 2.475-12.02 2.121-14.496 1.414-10.43.707-9.899-2.121-.53-1.768-.707-1.061-1.414-.884-1.237-1.591-1.061-2.121 1.414-2.652 1.591-2.121.707-2.121.177z" transform="translate(0 512.36)"/></g><g id="g13712" style="fill:#aaf"><path id="path13714" d="M270.25 598.24c.654 3.26 1.344 9.217 2.02 14.996.335 2.861 1.07 8 1.229 10.879-1.193.129-2.526-.165-3.602.32-1.036.467-2.127 1.102-2.771 2.02-.813 1.161-1.445 2.423-1.721 3.856-.225 1.167-.45 2.394-.196 3.537.394 1.778 2 2.917 2.959 4.409.808.554.104 1.298-.116 1.98-.561.435-1.43.685-2.178.753-1.222.112-2.507.223-3.642-.432-1.492-.86-3.087-1.483-4.434-2.604-1.281-1.067-2.341-2.343-3.302-3.677-.62-.861-1.07-1.786-1.201-2.884-.263-2.206-.322-3.317-.257-5.521-1.578-.555-2.439-.772-3.02-.893-1.849-.384-2.197-1.618-3.705-2.778-1.721-1.324-3.317-2.799-5.064-4.087 1.522-1.846 2.323-3.16 3.542-5.239.556-.948 1.753-2.662 2.696-3.186 1.276-.71 2.23-1.808 3.694-2.052-.166-.53-1-1.119-1.213-1.768a18.7 18.7 0 0 1-.908-5.226c-.026-.991-.284-2.077.04-3 .552-1.579 1.491-2.955 2.403-4.367.501-.775 1.158-1.198 1.948-1.573 1.527-.724 3.065-1.429 4.671-1.96-.182 1.321-.821 2.617-.388 3.964.443 1.378.334 2.988 1.033 4.236.61 1.089 1.341 2.152 2.511 2.736.811.405 1.439 1.203 2.461 1.025 1.023-.178 2.063-.018 3.02-.567.881-.508 1.828-.831 2.438-1.7l1.055-1.196z"/><path id="path13716" d="m268 600.24.125-22c-.585-2.034-1.861.363-2.844.881-1.27.947-2.396 2.289-3.755 2.994-1.915.519-2.152-.588-1.831-2.236.223-7.496.354-14.997 1.175-22.458.365-4.865.983-9.706 1.505-14.556h6.875c2.027 7.573 3.82 15.28 7.253 22.37 1.642 4.263 3.171 9.264 4.117 12.942-.55 1.18-1.553 2.306-2.864 2.813-1.381-.05-1.972-1.865-3.01-2.672-.709-.845-2.064-2.824-2.66-1.12 2.461 6.343 5.078 12.647 7.442 19.01 1.409 12.902 2.621 25.827 4.442 38.679.452 4.459 1.523 9.133.382 13.512-.885 1.104-1.832 2.098-3.349 2.08-1.238.19-2.146-1.699-2.395-2.829-.69-3.255-1.712-6.409-2.9-9.509-2.431-10.487-3.261-21.242-4.745-31.884l-.959-7.522-2 1.5z"/><path id="path13718" d="m264.87 543.36 2.25 33.75"/><path id="path13720" d="m266.25 543.24 6.625 33.12"/><g id="g13722" style="stroke-dashoffset:1" transform="translate(0 512.36)"><path id="path13724" d="M281 119.688a1.75 2.313 0 1 1-3.5 0 1.75 2.313 0 1 1 3.5 0"/><path id="path13726" d="M282.625 130.188a1.438 1.813 0 1 1-2.875 0 1.438 1.813 0 1 1 2.875 0"/></g></g></g><path id="path13728" d="m279.5 83.5 3.25.5 4-3.25 1.5-5 .5-3.25V68l-1.5-3-.75-1.75-2.25-2.5 5.25-8.5 2.75-6.5 2.25-6.25 2.25.5 5.25 4.5 5.5 5.5 5 7.25 4.5 9 2.5 6.75 2.75 10.5.75 9.5v5.75l-.75 7.75-1.5 8-2.25 9-3.75 9L311 139l-5 7.75-6-6.5-5-5.5-4.5-3L294 127v-5l-2-6-3.5-2.75-2.75-1.25-3.5-.25z" style="fill:#aaf" transform="translate(0 512.36)"/></g><path id="path13730" d="M299.7 596.61s-.328 2.784-.819 4.082c-.421 1.111-1.074 2.134-1.79 3.082-.668.884-1.55 1.586-2.311 2.392-.885.937-1.988 1.719-2.621 2.842-.707 1.255-1.461 2.736-1.2 4.152.209 1.133 1.106 2.147 2.082 2.761 1.175.739 2.724 1.103 4.082.819 1.524-.318 2.925-1.406 3.831-2.672.671-.937.96-3.322.96-3.322l.14.76c.07.38.181 1.58.041 2.351-.217 1.196-.694 2.362-1.34 3.392-.685 1.091-2.621 2.842-2.621 2.842l.07.38s2.909-1.191 4.422-1.602a14 14 0 0 1 2.281-.421c1.56-.156 4.702-.081 4.702-.081l-.07-.38s-2.433-.945-3.462-1.72a9.7 9.7 0 0 1-2.462-2.691c-.406-.671-.731-1.831-.801-2.211l-.14-.76s1.12 2.125 2.082 2.761c1.299.859 2.995 1.377 4.533 1.129 1.37-.22 2.687-1.113 3.521-2.222.693-.921 1.169-2.188.96-3.322-.261-1.417-1.494-2.531-2.602-3.451-.991-.823-2.302-1.16-3.462-1.72-.998-.482-2.072-.822-3.01-1.41-1.01-.63-1.982-1.353-2.772-2.24-.922-1.037-2.222-3.521-2.222-3.521"/><g id="g13732" style="stroke:#000"><g id="g13734" style="stroke-linecap:round;stroke-linejoin:round"><path id="path13736" d="M246.07 666.28c1.686.244 2.171-2.19 3.414-2.033 1.363.172 2.707.682 3.657-.53.985-1.255 2.281 1.104 3.404 1.525 2.471.928 4.837 2.368 6.645 4.241 4.218 4.371 7.443 9.76 9.484 15.447 1.123 3.129.835 6.621-.235 9.935-1.758 5.446-3.102 11.08-3.151 16.857-.031 3.634-1.307 7.663.503 10.967 1.748 3.191 2.985 4.659 4.751 7.842.759 1.368 1.323 2.958 1.973 4.283-4.127 4.858-8.679 11.415-12.415 16.584-2.434 3.367-3.584 7.546-6.47 10.609-.908.964-1.937 1.687-2.497 3.238-.973-1.045-.933-3.923-1.254-5.971-.246-1.569-.647-3.816-.849-5.02-1.4.235-2.587 3.063-3.167 4.326-1.986 4.326-3.407 7.23-4.484 11.486-.397 1.569-.888 2.993-1.785 4.31-6.528-.555-13.06-1.103-19.622-1.061 2.724-9.786 5.899-19.457 8.282-29.331 3.275-13.57 6.688-27.13 9.04-40.896 1.323-7.755 2.793-15.504 3.622-23.324.476-4.487.771-8.992 1.156-13.488z" style="fill:#a00"/><g id="g13738" style="fill:none"><path id="path13740" d="M264.19 720.38c-2.466 4.418-5.411 8.693-6.963 13.514-1.643 5.103-1.794 10.532-3.038 15.746-.375 1.569-.603 3.155-1.136 4.681"/><path id="path13742" d="M257.03 685.46c-.2 8.959.303 18.01-.971 26.876-.745 5.184-1.161 10.354-1.806 15.531-.818 6.564-2.02 13.1-1.858 19.739.051 2.151.19 4.296.304 6.443"/></g><path id="path13744" d="M106.75 662.61c-7.842 3.52-15.796 7.99-22.323 13.561-3.427 2.925-5.362 6.346-6.907 10.622-3.649 8.436-7.832 16.665-10.596 25.453-2.372 6.994-4.308 14.14-6.136 21.294-2.809 11.723-6.198 23.296-8.965 35.03-.559 2.563-1.304 1.954-.959 4.594 2.928-3.549 7.228-8.733 10.459-12 3.865-3.239 7.532-6.747 11.979-9.198 3.051-1.707 6.238-3.275 9.478-4.572 2.866-.774 5.683-1.912 8.708-1.532 3.535.023 6.692-.348 9.956-1.92 1.58-.273 3.405-.489 5.065-.252 2.696.967 3.685.378 7.097.107 1.84-3.463 3.01-9.539 5.517-12.649a26 26 0 0 1 4.087-5.302c.047-1.592-.194-2.344-.791-2.57-.596-.226-1.547.074-2.918.587-1.624-.108-3.541-1.241-3.25-3.079-.119-1.896-.093-3.756 1.151-5.308.409-2.044 2.874-.637 4.01-1.934 2.162-.628-.375-2.508.335-4.047.598-1.84.008-1.043 2.162-2.526-5.346-13.993-11.817-30.362-17.16-44.36z" style="fill:#a00"/><g id="g13746" style="fill:none"><path id="path13748" d="M92.28 680.6c1.363 5.614 2.746 11.224 3.829 16.901.744 3.897 1.747 7.758 2.249 11.692.953 7.461.963 15.01 1.7 22.496.361 3.664 1.704 7.177 1.987 10.86.03.388.089.774.134 1.16"/><path id="path13750" d="M87.5 705c2.134 4.64 4.219 9.297 6.151 14.03 1.326 3.248 2.387 6.619 4.165 9.658.849 1.45.844 3.198 1.172 4.815.723 3.567 1.297 7.163 1.947 10.744"/></g><g id="g13752" style="fill:#ff5"><path id="path13754" d="m142.27 678.69 12.25 1.25 14.25 1.25 9.25.25h8.75l10.5-.5 8.75-.5 7.25-1 5.75-1.75 4.75-1.5 2.281-.688.125-2.719c-1.489.559-2.985 1.093-4.531 1.5-5.404 1.423-10.848 2.82-16.406 3.313-10.677.946-21.449 1.014-32.16.438-10.679-.575-21.6-2.374-32.25-3.406.791 1.906 1.05 1.903 1.438 4.063z" style="stroke-dashoffset:1"/><path id="path13756" d="M147.25 694.36c-6.859-1.21 13.901.892 20.872.75 1.959-.04 3.919 0 5.878 0 .543 3.933 1.527 7.833 1.25 11.83.008 1.311.429 3.01-1.486 2.519-1.662-.106-3.134.459-4.548 1.293-1.501.885-3.316 1.313-4.161 3.02-.951 1.928-2.754 3.445-2.898 5.718-.112 1.764-.847 3.439-.119 5.231 1 2.469 1.167 5.419 2.962 7.385 1.614 1.769 4.388 1.629 6.721 2.01 1.792-.263 1.35 1.597 1.628 2.773q.837 4.7.651 9.471c1.927.47 4.158.251 5.851 1.24 2.259 1.319 4.452 2.784 6 4.998.89 1.272 2.221 3.397 2.285 5.03.831.126 1.508-2.63 2.02-3.609 1.094-2.087 1.781-2.478 3.515-4.03 1.327-1.186 2.8-2.488 4.497-2.94 1.491-.398 3.053-.458 4.579-.687-.268-3.179-.12-6.386-.4-9.553-.183-1.305-.858-2.914 1.063-2.918 1.874-.537 3.584-1.317 5.173-2.501 1.357-1.012 2.532-2.033 3.462-3.475 1.017-1.577 1.386-3.464 1.441-5.265.065-2.125 1.086-4.452-.079-6.404-1.263-2.115-1.679-4.228-3.745-5.53-2.778-1.75-7.846-2.494-11.164-1.854.251-4.58.284-9.164.25-13.75 2.779.151 5.579.911 8.342.625 5.71-.591 11.279-2.04 16.908-3.125l-.5 5.25c-3.929.841-7.873 1.549-11.893 1.768-2.474.134-6.01-.383-8.49-.291l-.354 5.834c1.943.02 4.872.54 6.761 1.288 2.261.895 4.273 2.217 5.79 4.02 1.329 1.576 2.394 3.558 2.72 5.584.364 2.267.498 4.516-.008 6.824-.568 2.591-.901 5.342-2.323 7.549-1.276 1.98-3.116 3.479-5.165 4.734-1.504.922-3.306.961-4.947 1.471.466 4.115.866 8.236 1.061 12.374-2.279.572-4.7.546-6.894 1.414-2.484.983-4.616 3.072-6.02 5.334-1.633 2.639-3.884 8.454-3.884 8.454s-1.111.29-2.931.089c-.073-2.246-.803-5.773-1.877-7.489-1.778-2.841-4.63-4.775-7.781-5.922-2.143-.78-4.448-.855-6.679-.643.18-4.226-.277-8.418-.654-12.62-.019-1.351-2.149-.941-3.183-1.264-1.553-.486-3.372-.659-4.608-1.659-2.497-2.02-3.37-5.336-4.283-8.322-.674-2.206-.977-4.487-.467-6.859.698-3.241 2.579-5.933 4.384-8.601 1.095-1.618 2.901-2.421 4.595-3.163 1.665-.729 3.465-1.121 5.276-1.353-.51-2.689-.873-5.389-.707-8.132-3.783.31-7.555.627-11.355.275-3.633-.336-7.289-.072-10.919.255l-1.419-4.447z"/><g id="g13758" style="stroke-dashoffset:1"><path id="path13760" d="M162.281 175.045a4.066 2.74 0 1 1-8.132 0 4.066 2.74 0 1 1 8.132 0" style="stroke-width:.89200002" transform="matrix(.97826 0 0 1.29032 3.351 462.34)"/><path id="path13762" d="M188.62 177.52a3.624 3.27 0 1 1-7.247 0 3.624 3.27 0 1 1 7.248 0" transform="translate(0 512.36)"/><path id="path13764" d="M212.662 176.194a3.27 2.828 0 1 1-6.54 0 3.27 2.828 0 1 1 6.54 0" transform="translate(0 511.66)"/></g></g><path id="path13766" d="M165.31 629.82s.576-.561.933-.75a4.4 4.4 0 0 1 1.399-.438c.592-.09 1.211-.111 1.799 0 .449.085.878.272 1.266.5.2.117.533.438.533.438" style="fill:none"/><g id="g13768" style="stroke-width:.99299997" transform="matrix(1.01871 0 0 1 -4.472 2)"><path id="path13770" d="M158.3 540.69c-3.423 2.164-6.652 4.417-9.415 7.348-1.053 1.117-3.126 5.367-2.888 7.03.183 1.279.29 4.913.763 6.05.528 1.271.297 1.253 1.198 2.643 5.335-1.736 13.01-3.992 18.551-4.927 3.516-.593 7.145-.404 10.699-.194 4.241.251 8.409 1.077 12.536 2.161 3.397.892 6.764 2.01 9.752 3.813 3.281 1.979 5.975 4.794 8.454 7.755 2.434 2.908 5.05 5.717 7.093 8.907 1.47 2.299 2.708 4.748 4.753 6.597 1.509 1.365 2.502 3.455 4.594 4.01 1.361.363 2.564 1.173 4.059.654 1.587-.551 3.303-.575 4.517-1.903 1.248-1.365 3.17-2.14 3.62-4.12.433-1.903 1.862-3.651 1.873-5.578a28.9 28.9 0 0 0-1.397-9.07c-.663-2.053-1-4.168-2.405-5.926-3.045-3.823-5.347-8.203-8.741-11.759-2.334-2.446-4.6-4.966-6.998-7.344-1.461-1.449-3.196-2.392-5.086-3.375-2.109-1.098-3.855-2.415-5.823-2.6-17.05 0-32.665-.177-49.713-.177z" style="fill:#55a"/><g id="g13772" style="fill:none"><path id="path13774" d="M170.25 551.86c.611 2.933 2.972 4.95 5.874 5.524.713.141 1.412.339 2.126.476"/><path id="path13776" d="M175 549.11c.738 2.448 1.958 5.113 4.704 5.858 3.54.961 7.239 2.065 9.796 4.892"/><path id="path13778" d="M190.25 551.61c1.87 2.608 4.199 4.867 7.185 6.212 4.233 1.906 6.949 6.05 9.114 10.01 1.47 2.685 2.959 5.359 4.451 8.03"/><path id="path13780" d="M209.25 562.11c2.283 4.01 4.734 7.922 6.995 11.94 1.583 2.813 1.85 6.146 1.255 9.31"/><path id="path13782" d="M209.66 553.85c2.849 6.05 6.769 11.622 8.895 17.982 1.288 3.853.808 9.279.868 13.32"/><path id="path13784" d="M213.19 551.02c.97 3.898 2.66 7.522 4.633 11.03 3.673 6.531 5.329 14.268 4.604 21.761-.043.446-.386 3.635-.467 4.076"/><path id="path13786" d="M215.84 548.2c.839 3.4 2.398 6.524 4.085 9.575 2.17 3.925 3.332 8.268 4.43 12.605.759 2.996 1.534 6.04.834 9.153-.451 2.01-1.094 7.845-1.246 9.893"/><path id="path13788" d="M224.68 560.57c.522 3.377 1.257 6.711 2.504 9.913 1.279 3.283.637 6.843.688 10.285.029 1.981-1.575 7.664-2.19 9.538"/><path id="path13790" d="M228.4 563.04c.286 3.169 1.04 6.221 2.152 9.249 1.881 5.124-.685 13.07-3.054 18.03"/><path id="path13792" d="M232.81 569.94c1.636 2.47 2.243 5.422 1.956 8.381-.361 3.712-2.535 10.489-5.294 12.461"/></g></g><path id="path13794" d="M149.59 564.66c-.85.184-1.737.333-2.5.75-.674.368-1.517.768-1.75 1.5-.209.655.048 3.482.5 4 .59.676.588.899 2.375 1.25 1.227.241 2.693.156 3.875-.25 1.774-.609 4.653-1.728 6.412-2.01 2.49-.403 4.979-.941 7.5-1 2.927-.069 5.855-1.276 8.75-.841 3.12.469 6.222.176 9.25 1.061 2.986.873 5.883 2.041 8.75 3.25 1.614.681 3.068 1.76 4.75 2.25 1.29.376 2.647.438 3.938.813 1.504.436 2.838 1.162 4.313 1.688.971.346 1.985.568 3 .75.743.133 2.25.25 2.25.25s-2.291-3.512-3.75-5c-2.369-2.416-5.074-4.925-8-6.625-4.362-2.535-9.08-4.259-14-5.375-4.314-.979-8.828-.87-13.25-.75-3.02.082-6.01.612-9 1-2.256.292-4.498 1.21-6.75 1.53-1.832.261-4.853 1.371-6.662 1.763z" style="fill:#fa5"/><g id="g13796" style="fill:none"><path id="path13798" d="M141.86 590.48c-.083 2.62.61 5.505-.553 7.874-1.347 2.746 2.03 7.214 1.123 10.346-.717 2.478-6.242 3.171-5.274 5.543.796 1.953-.363 5.753-3.132 4.232-1.662-.913-.929-3.817.599-3.478"/><path id="path13800" d="M136.83 626.15c-3.43 1.962-5.711 6.985-6.443 10.764-.504 2.601-1.661 5.345-3.778 7.097-1.328 1.098-3.083 1.788-4.628.877"/><path id="path13802" d="M140.54 654.88c-2.605-1.392-1.316-4.827-1.945-6.629-.851-2.441-2.136-5.02-1.768-7.601.419-2.935.513-14.03.619-17.06l.181-2.103 1.5-2.375 1.25-1.5v-2.375l1.625-1.25 2.375-1.25 1.5-1.5.25-1.875"/><path id="path13804" d="M121.98 656.56c3.235-.058 4.301-.697 5.714-2.733 1.489-2.145 2.574-5.376 4.1-7.356 1.432-1.859 2.612-9.33 5.538-10.04"/><path id="path13806" d="M201.87 575.74c.628 4 2.543 7.671 3.03 11.693.439 3.646 3.766 6.471 3.136 10.176-.599 3.528.189 7.18-1.038 10.631-1.337 3.76 2.251 5.908 3.385 9.01 1.194 3.261 1.176 6.582 4.395 8.876 3.506 2.498-.56 6.937-1.628 9.894-1.327 3.673-2.033 8.443.21 11.858 2 3.046 6.522 1.058 8.453 5.505 1.317 3.03 2.821 6.647 5.959 7.858 3.386 1.306 7.866.644 10.406-1.876 2.75-2.729.007-8.912-4.362-9.12-3.513-.168-6.707 7.861-1.193 6.124"/><path id="path13808" d="M204.76 576.61c2.368 3.634 3.398 9.481 4.358 13.652.724 3.146 1.507 6.02 1.339 9.322-.202 3.992.731 7.677 1.422 11.778.533 3.167.857 6.568 3.125 8.625 2.651 2.404 6.777 3.118 6.389 7.13-.384 3.967-1.475 7.724-3.01 11.37-1.596 3.783 2.544 8.444 5.375 9.875 3.01 1.524 8.674.254 9.09-3.634.469-4.365-1.094-8.913-3.3-4.571-1.625 3.199-6.785 1.638-5.57-3.086.927-3.605 3.315-3.221 3.653-6.541.348-3.424-.843-4.919-1.583-8.126-.788-3.413-7.278-3.517-8.894-7.147-1.607-3.611-1.842-7.715-2.148-11.645-.432-5.553-.617-11.176-2.383-16.567-.938-2.864-.256-5.81-2.367-8.308"/><path id="path13810" d="M217 588.11c1.419 3.674 1.753 7.608 2.821 11.403 1.167 4.146 2.898 7.853 2.844 12.197-.05 3.989 4.134 5.03 5.777 8.437 1.647 3.413 2.089 6.447 2.455 9.846.333 3.099-2.907 7.946 2.3 8.375 3.03.25 5.852 1.597 7.432 4.422 2.063 3.687 1.426 7.829.997 11.821-.302 2.804 1.316 6.298-2.5 7.125"/><path id="path13812" d="M225 602.49c.886 2.306.958 4.937 2.205 7.05 1.648 2.79 7.939 3.51 5.67 7.825-1.905 3.623 1.229 7.07 1.405 10.625.171 3.474 1.191 9.189 4.22 8.5 4.272-.972 3.375 2.297 4.694 4.154 1.863 2.623 3.898 4.125 3.785 7.658-.105 3.283-2.816 5.444-2.844 9.188-.02 2.739 3.454 4.159 4.364 6.501"/><path id="path13814" d="M249.75 644.74c1.042 3.696 2.494 7.141 2.906 11.126.292 2.822-3.03 5.818-4.287 1.82-.453-1.436.905-2.595 1.631-3.821"/><path id="path13816" d="M122.95 639.32c-.069.471-.27.965.073 1.418.438.578 1.136.964 1.857.745.655-.198 1.212-.679 1.379-1.363a13 13 0 0 0 .315-1.949"/><path id="path13818" d="M121.09 645.07c.645.47 1.431.82 1.797 1.59.523 1.1.858 2.429.306 3.564-.343.705-.396 1.681-1.099 2.097-.767.456-1.751-.1-2.366-.659-.449-.409-.096-1.046-.141-1.554"/><path id="path13820" d="M137.9 646.79c-.686 1.281-1.495 2.511-1.782 3.949-.372 1.864-.873 3.745-1.789 5.447-.845 1.57-1.894 3.038-3.059 4.429-.43.513-.805 1.058-1.477 1.333-.69.282-1.287.745-1.994.989-.624.216-2.538.081-2.533-.678"/><path id="path13822" d="M147.12 614.49c-.595 1.11-1.13 2.458-2.443 2.869-1.214 1.01-1.755 2.617-2.184 4.091-.631 2.267-1.537 4.51-1.405 6.913-.013 3.133.329 6.26.156 9.395.035 2.57-.403 4.658 1.047 6.899 1.111 1.296 3.322 2.487 4.199 4.03.584 1.356.806 3.396-.598 4.327-1.634.944-4.266-.643-3.697-2.125.184-.539.87-1.638 1.293-1.552"/><path id="path13824" d="M148.24 618.36c-1.016 1.875-1.952 3.82-2.314 5.942-.211 1.67-.97 3.242-.879 4.953-.052 3.282.196 4.262.241 7.544.108 1.926.948 3 2.191 5.78 1.61 1.46 1.517 5.748 1.715 7.765.085.892-.146 1.764-.265 2.641"/><path id="path13826" d="M150.62 114.87s-.997 1.603-1.25 2.5a7.7 7.7 0 0 0-.25 2.875c.104.996.378 2.01.875 2.875.336.589.897 1.019 1.375 1.5.561.565 1.39.915 1.75 1.625.323.636.25 2.125.25 2.125" transform="translate(0 512.36)"/></g><path id="path13828" d="M119.87 781.61c-2.564-.511-4.936-1.69-7.248-2.937-1.307-.705-2.604-1.574-3.549-2.691-1.081-1.277-1.755-2.777-2.353-4.376-.535-1.431-1.231-3.223-.225-4.246.869-.883 1.331-.706 1.419-1.77.164-1.98-.358-3.932-.264-5.88.081-1.675.643-3.26 1.51-4.74 1.6-2.731 2.386-5.848 3.745-8.708 1.386-2.918 1.932-6.164 3.236-9.105 1.221-2.753 2.649-5.413 4.476-7.818 1.024-1.348 2.01-2.841 3.378-3.831 2.455-1.771 4.856-3.722 7.759-4.714 1.153-.394 2.204-1.408 3.391-1.405 1.433.003 2.961.291 4.216.946 1.051.548 1.656 1.543 2.16 2.66.76 1.687.049 3.585-1.148 4.806-.708.722-1.949.556-2.887.932-2.287.917-4.851.684-7.174 1.404-1.696.525-2.853 1.904-4.196 3.02-.93.775-.391 1.511.35.683 1.023-1.144 1.998-2.853 3.48-3.198 3.716-.867 7.435-1.889 11.202-2.391 1.194-.159 2.525.295 3.206 1.532.923 1.677 1.522 3.571 1.017 5.324-.36 1.249-1.735 2.129-3.192 2.214-2.289.133-4.567.462-6.83.828-2.201.356-3.638 1.809-5.426 3.15-.933.7-.999 1.588-.052.808 2.666-2.196 3.117-2.548 5.096-3.157 2.228-.686 4.473-.966 6.725-1.513 1.363-.331 2.936.029 4.101.833.657.454.636 1.676.828 2.49.24 1.012-.267 1.803-.889 2.592-.788.998-2.1 1.405-3.208 1.954-1.586.787-3.441.928-4.916 1.971-.752.532-1.671 1.237-2.387 1.713-.692.46-1.381.698-1.222 1.234.108.364 1.681-.633 2.369-1.048 2.748-1.658 5.1-4.135 8.195-5.09.863-.266 1.073.315 2.01.785.975.488 1.464.868 1.393 1.982-.082 1.28.594 2.7.19 3.878-.57 1.662-2.297 2.593-3.936 3.148-1.236.419-2.268 1.233-3.227 2.101-.854.772-1.392 1.74-2.43 2.298-1 .537-2.434.689-2.945 1.702-.307.609 2.219-1.377 2.25-.416.038 1.165-.061 2.253-.596 3.325-.506 1.013-.85 2.048-1.781 2.785-2.095 1.657-3.164 4.415-5.263 5.991-1.894 1.421-4.438 1.673-6.815 1.744-.99.03-1.688.066-1.919 1.321-.216 1.173.05 2.309 0 3.5-.061 1.449-.506 3.599-1 3.5z" style="fill:#faa"/><g id="g13830" style="fill:none"><path id="path13832" d="m118.5 738.61.5 2.75c.851.82 2.15.909 3.125.25"/><path id="path13834" d="M121.12 743.24c.145 1.66-.508 3.812 1.178 4.908.884.656 2.027.641 3.072.592"/><path id="path13836" d="M126.62 754.36c-.018 1.215.179 2.566 1.544 2.847.445.376.834-.024 1.206-.222"/></g><path id="path13838" d="M45 269.75s2.238-2.866 3-4.5l1.75-3.75 3.5-3.125 4.25-5.25 4.375-4.5L65.5 245l5.75-4.125 5.875-3.125 6.125-3 5.625-1.375 4 .375 3-.875 4.25-.625 3.5-.875 1.75-.125 2 .125 1.875.75 1.75-.375 1.625-.125c.343-.026 1-.25 1-.25s-.523 1.493-.75 2.25l-.75 2.5L111 239l-.875 2.125-1.5 2.875-1.125 2.875V250l-.5.875-1.25.625H103l-.625 1.25-2 1.75-1.75-.125h-3.5l-2.25 2.375-1.875 2.5-1.75 3-1.875 2.75-.5 1.375-.25 1.125.75-1.375.875 1.625c.322.597.375 2 .375 2l-43.12-.125z" style="fill:#55a" transform="translate(0 512.36)"/><g id="g13840" style="fill:none"><path id="path13842" d="M59.12 781.74c1.915-3.569 4.269-6.904 6.875-10"/><path id="path13844" d="M62.875 781.61c1.742-2.628 3.608-5.172 5.875-7.375"/><path id="path13846" d="M66.62 781.49c1.54-1.714 3.321-3.249 4.5-5.25"/><path id="path13848" d="M72.875 781.36c.799-.989 1.593-1.958 2.125-3.125"/><path id="path13850" d="M77.25 769.24c.933-2.054 1.52-4.28 2.893-6.113 1.528-2.04 3.104-4.125 5.09-5.707 3-2.391 6.534-4.045 9.673-6.247 1.347-.945 2.531-2.12 4.099-2.704 1.3-.485 2.077-1.756 2.923-2.799.739-.91 1.729-1.262 2.697-1.804"/><path id="path13852" d="M101.12 750.36c1.105-.991 2.04-2.523 3.636-2.625.868-.056 1.761.151 2.489-.5.872-.78 1.396-1.959 2.125-2.875"/><path id="path13854" d="M101.37 758.99c-2.269 2.971-4.852 5.679-7.08 8.686-2.025 2.738-4.542 5.183-6.14 8.18-1.026 1.924-1.532 4.068-2.534 6.01"/><path id="path13856" d="M107.5 758.61c-1.614 1.731-3.124 3.547-4.625 5.375"/></g><path id="path13858" d="m264.9 269.18.354-2.21.972-1.856.972-2.21.619-2.386.177-2.475.707-2.828.884-2.386 1.503-3.01.796-3.624v-2.475l.177-2.74.884-2.652 1.503-2.386 1.237-1.945.442 1.945.972 1.503 2.386 1.768 2.74 2.563 2.828 1.326 2.563.707 2.033.354h1.414l3.977-1.237 1.679-1.149 1.945-1.237 1.591-.796.088-1.679 1.591 4.861 2.033 4.243 1.326 3.094 1.503 3.712 1.414 4.773.53 4.861-.177 4.508.177 1.237z" style="fill:#a00" transform="translate(0 512.36)"/><path id="path13860" d="M277.62 744.86c-.696-.133-1.593.35-1.875 1-.455 1.048.331 2.311.884 3.311.456.824 1.216 1.449 1.925 2.069 1.501 1.314 3.165 2.447 4.883 3.461 1.078.636 2.178 1.287 3.381 1.633 1.182.34 2.439.456 3.668.405 1.266-.052 2.526-.335 3.73-.728 1.202-.393 2.378-.916 3.435-1.611.955-.629 2.048-1.257 2.567-2.276.417-.818.364-1.829.268-2.743-.042-.399.025-1.055-.365-1.147-1.291-.304-1.737 2.027-2.774 2.855-1.129.901-2.352 1.74-3.702 2.252a9.1 9.1 0 0 1-3.324.601c-1.139-.017-2.302-.248-3.344-.708-1.818-.801-3.345-2.169-4.845-3.472-1.145-.993-2.128-2.16-3.142-3.287-.472-.525-.675-1.484-1.368-1.617z" style="fill:#fff"/><g id="g13862" style="fill:none"><path id="path13864" d="M292.48 762.98c-1.582.428-3.269.315-4.88.089-1.432-.201-2.817-.705-4.148-1.27-.708-.301-1.359-.723-2.02-1.117"/><path id="path13866" d="M292.65 767.22c-1.811.813-3.799 1.153-5.762 1.25-2.097.104-4.239-.037-6.258-.72"/><path id="path13868" d="M293.54 771.64c-1.752 1.153-3.708 2.06-5.757 2.448-1.36.258-2.768-.064-4.152-.114-.91-.033-1.821-.109-2.73-.124"/><path id="path13870" d="M293.98 776.24c-1.878.332-3.628 1.191-5.5 1.536-2.143.394-4.33.633-6.509.598-.271-.004-.539-.064-.808-.101"/><path id="path13872" d="M302.11 756.61c-.095 1.383.192 2.758.461 4.11.31 1.562.905 3.054 1.321 4.592.445 1.642.972 3.27 1.257 4.947.331 1.949.374 3.936.519 5.907.028.375.044.751.067 1.127"/></g><path id="path13874" d="M291.62 753.61c-1.833-.069-3.37.343-5-.5-2.552-1.32-4.715-3.56-6.679-5.644-.603-.98-1.253-1.921-2.196-2.606.198-1.932.744-3.867.226-5.794-.267-2.46-.835-4.971-2.344-6.984-2.119-3.263-3.906-6.742-5.796-10.129-.478-1.672-.884-3.353-.711-5.105.027-3.88.188-7.799.923-11.611.657-2.219 1.297-4.442 1.376-6.77.188-1.504 1.016-2.882 1.63-4.251.865-1.512 2.061-2.787 3.133-4.13.442-1.144 1.227-2.244.755-3.506-.068-1.37.7-2.677 1.558-3.72 1.123.261 2.502.04 3.147 1.202 1.112.823 1.342 2.191 1.603 3.46.082 2.048-.031 4.078-.53 6.073-.323 1.79-1.131 3.515-2.47 4.765-1.044.084-1.348.332-2.293-.146.713.701 1.027.884 1.561 1.682-.21 1.738.927.188 1.612-.258 1.577-1.076 3.531-1.518 5.281-2.285 1.885-.617 3.814-1.338 5.128-2.906 1.01-.375 2.265-.889 2.42-.919 2.194.199 3.837-.112 6.04-.042 1.384 1.135 2.375 2.747 2.489 4.559.283 1.042.045 2.271-.989 2.782-.95.784-1.717 1.777-2.875 2.284 1.556.413 3.234.541 4.745.984.816.628 1.546 1.303 1.438 2.421.123 1.725.32 3.54.103 5.23-.812 1.697-2.744 2.185-4.285 2.991-.821-.13 1.568.732 1.58 1.439.343.975 1.01 1.822 1.43 2.722-.033 1.666.606 3.292.136 4.938-.868.687-2.278.945-3.433 1.151-1.8-.299.058.806.598 1.405.811.594 1.5 1.539 1.632 2.496-.437 1.16-.761 2.736-2.229 2.93-1.686.768-2.4 1.096-1.652 3.107.372 2.637-.116 5.296.128 7.948-.189 2.498.951 4.814 1 7.293.123.987.334 2.215-1.052 2.043-2.171.494-4.248 1.823-6.556 1.442l-.585-.039z" style="fill:#faa"/></g><g id="g13876" style="fill:none"><path id="path13878" d="M279.48 700.75c-.236.589-.795 1.139-.707 1.768.097.693.545 1.511 1.153 1.788.788.359 1.725.616 2.567.47 2.127-.37 4.23-.829 6.356-1.196.877-.151 1.663-.802 2.597-.598 1.882.41 3.854.659 5.765.213.566-.132 1.143-.214 1.714-.321"/><g id="g13880" style="stroke-linecap:round;stroke-linejoin:round"><path id="path13882" d="M284.02 704.6c-1.132.863-3.479 1.243-4.119 2.516-.296.589-.291 2.699.291 3.01 2.028 1.072 4.398 1.36 6.646 1.8 1.509.295 3.112.476 4.579.912 1.51.449 2.897 1.01 4.426 1.358 1.147.265 2.398-.025 3.53.271.396.104.766.287 1.149.431"/><path id="path13884" d="M286 711.93c-.707.059-3.182-.013-3.684.489-.548.548-.702 2.231-.354 2.923.702 1.394 2.204 1.578 3.488 2.472 1.027.716 1.922 1.626 3.139 2.049 1.756.611 3.506 1.254 5.099 2.245 1.636 1.017 3.31 1.976 5.114 2.673.284.11.558.244.837.366"/><path id="path13886" d="M294.58 722.75c-1.469-.306-3.123-.969-4.633-.915-.439.016-3.873-.273-4.706.007-.823.277-1.696.191-2.155.927-.438.702-.747 2.259-.239 2.912 1.059 1.362 2.777 2.052 4.387 2.735 2.562 1.087 5.111 2.188 7.721 3.149.857.316 1.765.835 2.651.794.564-.026.989.089 1.532.111.341.014.71-.534 1.034-.426"/></g></g><path id="path13888" d="m288.15 216.85 6.894 52.5 9.205.177-6.553-49.5-3.359-1.061-2.652-.884z" style="fill:#fa5" transform="translate(0 512.36)"/><g id="g13890" style="stroke-linecap:round;stroke-linejoin:round"><g id="g13892" style="fill:none"><path id="path13894" d="M278.6 720.2c-.217 1.621-.824 3.244-.687 4.865.205 2.42 1.022 4.763 1.796 7.06.1.296.321.535.482.803"/><path id="path13896" d="M276.48 733.46c1.064 1.143 1.986 2.446 3.162 3.464.798.69 1.876 1.066 2.604 1.817.309.319.516.722.774 1.084"/></g><path id="path13898" d="m123 725.86-.125-1.75c-.417-.375.042-.375-.375-.75-.728.234-2.327.182-3.058.362-.533-.142-1.1-.216-1.613-.399-.433-.389-.966-.722-1.338-1.146-.102-.913-.346-1.82-.351-2.738.06-.747.032-1.523.145-2.251.595-.768 1.043-1.666 1.838-2.255.296-.316.636-.554 1.071-.622.859-.255 1.708-.54 2.557-.825.034-.487.24-.996-.052-1.442-.287-.568-.404-1.181-.457-1.81-.004-.396-.273-.861.098-1.158.33-.401.603-.881.967-1.233.528-.148 1.04-.471 1.598-.281.415.084.875.076 1.262.216.689.682 1.387 1.376 1.977 2.139.132.28.153.975.496.455.492-.4.888-.961 1.542-1.095.543-.158 1.06-.493 1.621-.53.621.058 1.267.04 1.872.146.961.617 1.943 1.218 2.861 1.891.36.529.828 1.01 1.12 1.567.133.626.402 1.247.448 1.877-.105.424-.11.907-.275 1.295-.669.526-1.356 1.034-1.861 1.73-.194.284-.168.706-.198 1.039.14.319.117.8.57.806.661.105.172.245-.196.38-1.495.613-3.01 1.176-4.494 1.82-1.854 1.176-3.756 2.294-5.498 3.633l-1.776 1.554-.375-.625z" style="fill:#fa5"/><g id="g13900" style="fill:none"><path id="path13902" d="M122.75 723.24c.125-.75.375-1.875.5-2.625.522.237 1.027.56 1.559.746.749-.104 1.557.033 2.237-.355.413-.22.925-.311 1.276-.61.556-.742 1.172-1.454 1.691-2.214.199-.892.442-1.769.824-2.602.224-.169.692.152 1.012.175.842.217 1.655.568 2.538.565.677.133 1.327-.218 1.987-.331"/><path id="path13904" d="M121.87 713.36c.658.281 2 .58 2.528 1.052.394.719.805 1.429 1.097 2.198-.248.6-.339.147-.438-.252-.192-.571-.305-1.161-.437-1.748"/><path id="path13906" d="M127.75 710.61c.054.669-.388 1.701-.083 2.292.236.143.612.881.677.301.013-.367-.249-.728-.344-1.093-.292-.375.042-1.125-.25-1.5"/></g><g id="g13908" transform="translate(0 512.36)"><path id="path13910" d="m88.75 269.56 28.25-.313-1.625-1.188-2.313-1.25-3.125-2.188-1.438-1.688-1.375-2.375-.438-2.375-.563-1.438.063-1.563.875-.813.938-1v-1.438l-.25-1.938-1 1.125-1.125.375-1.313.063-1.125.125-.625 1.375-1.313.938-1.813.438h-2.438l-1.688-.188-2.375 2.375-1.625 2.5-1.813 2.75-1.75 2.938-.438.875.438 1 .5 1.063.375.75z" style="fill:#a00"/><g id="g13912" style="fill:none"><path id="path13914" d="m88.69 268.5 1.313-2.438 1.688-2.125 1.688-1.938 1.625-2.313 1.625-2.5.938-1.125 1.125-1.25"/><path id="path13916" d="m101.62 264.75.875.938 1.313 1.125 1.375.688 1.625.688 1.688.563 1.25.375"/></g></g><g id="g13918" style="fill:#fa5"><g id="g13920" transform="translate(0 512.36)"><path id="path13922" d="m137.8 246.73 1.856-1.503 2.121-2.033 1.945-1.149 1.856-1.061.795-.177v1.326l-.177 1.591.354 1.061 1.237.53 1.061.884.088 1.945.177 1.326.53 1.061 1.679.707 1.768.177 2.033-.088 3.01.088 2.652.53 2.475.265 2.033.265 1.149.972.442 1.679-1.149.884-3.182 1.061-3.624.795-1.149.707-.795.088v1.237l-.088.884v.707l-1.679.707-.796.265v1.414l.53 1.591.884 2.563.53 1.237-4.685.354-6.01-.177-3.801.177-2.74-.265-.619-1.679-.619-1.149-2.21.884-2.121.442-1.945.884-1.679.354-2.033.354-1.591-.177-.972-.354-.354-1.591.53-1.061-.354-1.061-.707-.796.177-1.503 1.149-1.061 2.033-.707 3.182-1.237 2.121-1.237 1.591-1.149 1.237-1.503 1.856-2.298-1.237-1.326.53-2.033.972-1.945z"/><path id="path13924" d="m126.04 265.73 7.07-1.503 5.48-2.475 6.099-1.679 5.922-1.768 4.508-.972 4.773-.884 4.154-.442 1.503-.53" style="fill-opacity:.331"/></g><path id="path13926" d="m138.2 779.03 3.775-.922 6.123-1.664 3.494-.673 2.513-.556" style="fill-opacity:.331"/></g><g id="g13928" style="fill:none"><path id="path13930" d="M138.15 761.74c1.267-.837 2.568-1.627 3.949-2.262 1.09-.53 2.01-1.334 3.02-1.98.281-.174.634-.098.951-.15l.387-.028"/><path id="path13932" d="M138.24 765.54c.914-.501 1.774-1.112 2.724-1.539l1.784-.405c.612.377 1.216.821 1.942.939.512.269 1.072.159 1.577-.055.449-.175 1.021-.189 1.36-.56l1.307-1.384"/></g></g><g id="g13934" transform="translate(0 512.36)"><path id="path13936" d="m156.5 269.37-1.5-2.75-.625-2.125-.125-1.25 1.25-.875 2.375-.5 9.125-.75 7.5-.5h9.5l15-.5 9.75.125h8l8.375.25 7.75.375 5.375.5 5.25.75.5 2.375v4.75z" style="fill:#fa5"/><path id="path13938" d="m155 265.12 5.25-.625 8.625-.875 10.125-.625 14.625-.625H208l9.25-.125 8.625.25 6.75.375 7.5.75 3.625.375.125 1.625-5.375-.125-9.625-.875-9.75-.25H209.5l-9.25-.125-14.75.5-10.125.5-8 .75-6 .75a31 31 0 0 0-5.625.875z" style="fill:#ff5"/><g id="g13940" style="stroke-linecap:round;stroke-linejoin:round"><path id="path13942" d="m244 268.75-3.5-2.75-3.5 2.875-3.375-3.5-3.125 3.5-3.625-3.625-4.75 3.375-4.5-3.25-3.375 3.125-3.625-3-3.375 3.5-4.25-3.625-3.25 3.375-4.75-3.375-3.25 3.25-4.5-3-4 3.125-3.375-2.75-5 3-4.375-2.25-3.75 2.375-4.5-2-4.25 2.125" style="fill:none"/><path id="path13944" d="m276.5 222.37-2.75 3.375-4.625 6.125-5.5 8.25-2.875 5.375-3 4.5-2.25 2.75-1.625 4.875-.875 3.875-.625 1.5-.875 2.125-.125 1.875v2.25H265l.5-2.875 1.125-2 .875-2.375.5-3.375.875-4.125 1.625-3.5 1.125-3.75.25-3.875v-2.125l1.875-4.25 2-3.375 2-1.5.75-3.75-.625-2.875z" style="fill:#55a"/><path id="path13946" d="m271.5 241.5-1.875 2.75-2.375 3.875-1.625 3.625-1.625 4.125-1.375 4-.875 4.125" style="fill:none"/></g></g><g id="g13948" style="stroke-linecap:round;stroke-linejoin:round"><path id="path13950" d="M300.96 740.26c1.892 1.446 2.711 2.988 4.242 5.01 2.11 4.271 4.178 7.876 5.755 13.07 1.242 3.03 1.241 6.395 2.456 9.448 1.326 3.674.929 7.612 1.161 11.426.306 1.391.552 3.14-1.345 2.562l-4.492-.066c-.59-2.901.73-5.777.077-8.681-1-7.867-5.86-14.473-8.01-21.984-.388-2.415-1.45-4.679-1.437-7.165-.18-1.321-1.191-3.737-.707-5.04z" style="fill:#55a"/><path id="path13952" d="M299.81 743.98c1.25 1.333 2.562 2.657 3.462 4.262.644 1.357.805 2.887 1.48 4.235.608 1.294 1.087 2.667 1.148 4.107.161 1.953.233 5.149.274 7.108" style="fill:none"/></g></g></g><g id="g13954" transform="matrix(-1 0 0 -.99584 360 1561.72)"><g id="g13956" style="stroke:#000"><g id="g13958" transform="translate(0 512.36)"><path id="path13960" d="m139.12 269.35-1.237-15.91-1.237-1.414-15.38 8.662-1.237 8.485z" style="fill:#555"/><path id="path13962" d="m274.75 123 8.875 63.25 1.625-.625L288 184.5l2.375-1.125 1-1.125L283.75 121z" style="fill:#fa5;stroke-linecap:round;stroke-linejoin:round"/></g><g id="g13964" style="stroke-linecap:round;stroke-linejoin:round"><path id="path13966" d="M120.25 542.61c-3.328 1.442-7.267 2.824-9 6.25-1.315 2.598 2.164 6.116-.38 7.951-2.955 2.131-2.91 5.941-2.601 9.01.324 3.221 2.676 6.348 5.814 7.301 1.625.493 2.858 1.375 1.146 2.928-2.463 2.233.157 5.987 2.271 8.06 1.56 1.528 3.207 1.218 5.471 1.195 1.923-.019-1.787 3.949.707 5.777 2.643 1.937 6.087 3.757 9.286 2.607 2.806-1.01 4.673-3.646 5.286-6.33.469-2.054.619-2.112.817-.093.195 1.991 4.148 2.61 4.622-.297.543-3.334 2.02-6.46 2.311-9.86.199-2.342 1.499-4.801.902-7-.579-2.135-1.498-3.294-.47-5.634 1.413-3.217-3.803-6.03-2.435-9.609 1.276-3.339 3.945-5.885 6.752-8.01 2.035-1.538 3.987-3.184 6-4.75l-36.5.5z" style="fill:#aaa"/><g id="g13968" style="fill:none"><path id="path13970" d="M151.25 546.11c-3.579-1.108-7.354-1.541-11.08-.727-5.83 1.273-11.663 3.32-16.302 7.04-2.541 2.037-3.362 5.501-3.581 8.745-.345 5.085-.628 10.351.998 15.195.872 2.599 3.091 4.841 5.616 5.91 2.628 1.113 4.726-1.894 4.983-4.512.225-2.291 2.534 2.978 4.958 1.803 2.24-1.086 3.397-3.657 3.995-5.861.227-.837.158-1.727.166-2.593"/><path id="path13972" d="M132 545.61c-2.662-.985-5.97-.685-7.75 1.75-.945 1.293-1.198 2.957-1.5 4.5"/><path id="path13974" d="M120 549.11c-2.811 1.348-6.446 2.652-7.5 5.75-.83 2.441.651 5.123 1.791 7.353.59 1.155 1.713 1.707 2.959 1.897"/><path id="path13976" d="M113.31 563.86c-.876 3.01-.641 6.34 1.898 8.809 1.724 1.676 3.033 3.869 5.541 3.441"/><path id="path13978" d="M124.75 586.61c2.348.967 5.089 1.035 7.178-.893 1.757-1.62.591-6.33 3.943-4.222 2.841 1.787 5.743-.968 6.558-3.548.389-1.229.694-2.538.571-3.837"/><path id="path13980" d="M126.75 590.11c1.852 1.605 4.421 1.808 6.48.035 1.936-1.667 1.148-4.983 3.058-5.689 2.091-.772 4.967.012 6.071-2.262.608-1.252 1.186-2.518 1.64-3.834"/><path id="path13982" d="M141.25 547.86c-.872 1.912-1.852 4.238-.396 6.226.804 1.098 1.052 2.651 2.396 3.274"/><path id="path13984" d="M137.25 551.11c-1.191 2.313-2.354 5.67-.366 7.737 1.326 1.379 3.698 2.204 5.616 1.513"/><path id="path13986" d="M133 552.61c-.808 2.865-.748 6.222 1.406 8.513 1.288 1.37 2.862 3.034 4.844 2.987.902-.021 4.27-2.577 2.984-.752-1.338 1.898-4.104 3.276-2.538 5.646 1.309 1.981 3.886 3.492 6.304 2.606"/><path id="path13988" d="M127.75 555.86c-1.512 2.636-.391 5.319 2 7.25 1.874 1.514 3.836 3.123 6.293 2.685.401-.071.806-.112 1.207-.185"/><path id="path13990" d="M126.25 563.86c-.164 2.96 2.157 4.633 4.797 5.486 2.16.698 4.687.736 6.453-.736"/><path id="path13992" d="M125 569.61c.656 2.738 2.532 4.944 5.25 6 3.216 1.25 7.137-.524 8.5-3.25l.25-.5"/><path id="path13994" d="M117.75 577.11c-1.052 2.959 2.183 5.75 5 5.25.631-.112 1.195-.443 1.75-.75"/><path id="path13996" d="M150 547.11c-3.257-.386-6.513-.189-9.75.5-5.608 1.194-11.358 3.034-15.545 7.06-2.776 2.669-2.629 6.805-3.329 10.337-.696 3.513 1.267 6.665 1.721 10.05.336 2.503 2.174 4.996 4.652 5.309 1.629.206 3.089-1.241 4.5-2"/></g></g><g id="g13998" style="stroke-linecap:round;stroke-linejoin:round"><path id="path14000" d="M137.62 665.62c1.054 3.82 1.915 5.274 3.447 8.927 10.65 1.032 21.578 2.828 32.26 3.403 10.707.577 21.49.518 32.17-.428 5.558-.492 10.985-1.912 16.389-3.335a47 47 0 0 0 4.748-1.541v-7.778c-1.718-1.441-3.726-2.728-4.486-4.988-.534-1.588-.772-3.239-2.229-4.379-1.29-1.01-3.03-1.075-4.393-2.02-1.142-.79-3.384.094-4.01-1.01-1.544-2.736-3.43-5.302-4.178-8.326-.312-1.261-.588-2.922.127-4.01.88-1.336 2.782-2.398 2.872-3.947.222-3.845-2.663-7.414-2.09-11.274.19-1.283 1.791-2.399.601-3.62-.548-.562-2.532-2.49-2.716-1.228-1.438 6.128-3.616 12.04-6.04 17.835-1.349 3.226-3.318 6.17-5.147 9.143-1.253 2.038-2.896 3.676-4.641 5.297-1.849 1.717-3.893 3.32-6.275 4.04-2.225.671-4.736.679-6.995.177-1.985-.441-3.991-.903-5.565-2.33-1.799-1.63-3.369-2.907-4.517-5.201-.745-1.489-1.818-4.176-2.374-5.958-1.965-1.408-3.706-1.656-5-3.695-.895-1.411-3.08-2.986-4.187-4.206-1.134.994-.742 3.352-1.293 4.707-.705 1.735-2.282.333-3.236 1.413-1.647 1.866-1.011 4.41-1.141 6.645-.151 2.602-.855 5.687-3.346 7.03-1.075.582-1.961 2.297-3.265 1.891-1.347-.419-1.346-2.714-3.03-1.546-1.621 1.127-1.402 3.467-2.543 5.05-.769 1.068-.066.557-1.138 1.893.185.594.977 2.304 1.222 3.36z" style="fill:#fff"/><path id="path14002" d="m142.47 166.41 12.28 1.088 14.25 1.25 9.25.25H187l10.5-.5 8.75-.5 7.25-1 5.75-1.75 4.75-1.5 2-.25-2.024 17.555-2.475 17.943-2.033 12.286-4.066 15.998-5.127 17.678-4.154 14.14-.265 1.149-10.783.53-11.579.265h-11.05l-4.508-11.05-4.596-14.672-3.801-13.789-4.861-13.877-3.889-12.728-3.094-11.225-2.475-9.458z" style="fill:#fa5" transform="translate(0 512.36)"/><path id="path14004" d="M146.25 582.36c-3.093 0-2.967 5.484-4.876 7.905-1.324 1.679-2.964 3.055-3.809 5.099-.495 1.198-.83 2.285-.815 3.589.022 1.94.61 3.917 1.781 5.407.875 1.114-.4 2.02-.858 2.962-.55 1.129-1.193 2.691-2.357 3.038-1.076.32-2.141-.122-2.978.912-.765.946-1.416 1.75-1.862 2.911-.642 1.669-.725 3.45.024 4.927.493.972 5.084 3 6.135 2.759 1.882-.432-1.968-.466-2.526.664-.489.99-2.18.632-3.041 1.422-1.059.973-2.313 1.698-2.81 3.138-.544 1.576-1.322 3.225-1.258 4.885.058 1.526.107 3.15-.436 5.621-1.226-1.103-.972-2.258-3.79-2.148-1.57.061-2.878 2.02-3.525 3.409-.698 1.499.462 3.205 1.317 4.598.699 1.139 1.657 1.637-.287 1.515-1.194-.075-2.105.45-3.139 1.088-1.438.887-2.045 2.323-2.391 3.799-.267 1.137-.213 2.342.7 3.356 1.227 1.363 2.344 2.773 3.965 3.585.85.426 2.286-.837 2.658.672.358 1.453.735 2.856 1.969 3.93.886.771 1.68 1.293 2.808 1.644 1.648.512 3.158-.309 4.686-.726 1.49-.407 2.807.87 4.32.54.983-.214 1.057-1.855 1.556-2.71.922-1.581 1.441-3.434 2.48-4.931.981-1.415.787.007 1.861.924 1.216 1.039 3.593.443 4.826-.269 2.124-1.227 1.696-2.786 2.423-5.01.689-2.114.354-3.999.863-6.134.288-1.209.143-3.119 1.137-3.866.853-.64 2.103.306 2.836-.938.658-1.117.455-2.198.808-3.178 1.547-.6.77-1.618.063-2.623-1.126-1.811-2.151-3.634-2.698-5.733-1.37-5.25-3.758-10.285-4.521-15.647-.563-3.958-.271-7.979-.834-11.949-.452-3.189-.098-6.446-.311-9.667-.193-2.917-.075-5.843-.093-8.765z" style="fill:#a55"/><path id="path14006" d="M147.01 569.05c-.361 1.498-.345 1.435-.462 3.166-.354 5.255-1.126 6.514-1.503 11.763-.274 5.355-.255 13.216.017 18.563.397 4.87 1.786 10.491 2.848 15.271.734 3.764 2.173 6.194 3.314 9.849 1.016 2.033 1.496 4.425 2.869 6.219 2.816 2.329 4.093 4.216 6.223 7.107 1.322 1.074 2.56 1.587 4.481 2.095.159 1.864.939 4.565 1.55 5.591.51 1.399 1.784 2.518 2.849 3.537 2.139 1.31 4.186 2.883 6.388 4.02 2.564.148 5.172.915 7.658-.068 3.27-.488 5.658-3.03 7.993-5.17 2.416-2.062 4.07-4.852 5.959-7.365 3.364-7.519 8.427-15.169 10.895-23.03.63-1.353 1.031-2.652-.531-3.487-.753-1.039-2.537-1.689-2.02-3.209.835-1.793-1.133-1.872-1.348-3.286-1.207-1.701 1.67-1.799 1.334-3.384.022-2.662.801-5.249 1.338-7.813.249-1.497-.848-2.518-1.394-3.713-.196-1.886.212-3.679.884-5.432.593-1.83-.928-2.073-2.092-2.925-1.583-.65-.992-2.136-1.601-3.316-.793-1.35.137-3.048.08-4.55-.017-1.234-.543-2.01-.963-3.328-.25-1.263-.364-1.178-.664-3.176-2.861-.9-6.665-1.825-9.125-2.852-3.957-2.297-8.122-3.157-12.383-3.484-4.346-.756-9.13-.297-13.525-.282a102 102 0 0 0-13.574 2.507c-1.05.267-1.613.105-2.682.313z" style="fill:#faa"/><g id="g14008" style="fill:none"><path id="path14010" d="M146.26 583.27c.678-.917 1.952-.77 2.806-1.431 1.339-1.035 3.135-.847 4.732-.903 1.878-.065 3.803.135 5.547.83 1.067.425 2.041 1.212 2.648 2.189.493.794.396 1.816.521 2.729.055.405.079.814.143 1.219"/><path id="path14012" d="M162.66 587.33c.355 3.695.275 4.921.031 8.104-.178 2.317-.255 3.039-.406 5.338-.065.989-.122 2.948-.417 3.879-.286.903-.618 2.916-.586 3.858.033.962-.026 2.947 1.021 3.361 1.428.564 2.442-.3 3.844.242.646.25 1.609.995 2.159.599 1.042-.751 1.531-.086 2.462-.944.528-.487 1.367-1.109 2.058-.907 1.01.294 2.108 1.124 3.02.619.602-.333 1.052-1.374.258-1.901-.087-.057-.781-1.355-.85-1.431"/><path id="path14014" d="M172.26 585.02c.871-.934 1.416-2.304 2.569-2.864a10.9 10.9 0 0 1 4.959-1.069c2.343.045 4.688-.243 7.02.112 1.205.184 2.564-.128 3.653.349 1.234.54 1.772.332 3.173 1.157"/></g></g><g id="g14016" style="fill:#f55;stroke-width:1.02499998" transform="matrix(1.06615 0 0 .89639 -10.607 62.55)"><path id="path14018" d="M161.28 623.32c.327-.822 1.467-1.054 2.222-1.539.556-.345.902-.978 1.689-1.01.882-.092 1.95.015 2.475.678.532.402 1.583.343 1.591-.288.446-.305 1.586-.267 2.095-.243 1.415.244 2.07.757 3.329 1.338.521.217 1.315.387 1.35.96-.211.643-1.362.455-1.736 1.025-.825.802-1.311.933-2.203 1.694-.671.705-1.456 1.469-2.608 1.592-1.369.179-2.753-.084-4.08-.348-.869-.197-1.774-.602-2.059-1.356-.233-.649-.749-.305-1.189-.863a13 13 0 0 1-.88-1.485l-.009-.078.014-.078z"/><path id="path14020" d="M161.59 623.93c.943-.071 1.896-.076 2.822-.287.766-.213 1.039.719 1.714.833.998.26 2.069.418 3.089.203.656-.207 1.168-.7 1.794-.977.633-.432 1.422-.522 2.16-.358.827.054 1.594.438 2.422.46.172-.011.338-.07.5-.125"/></g><g id="g14022" style="stroke-linecap:round;stroke-linejoin:round"><g id="g14024" style="fill:none"><path id="path14026" d="M165.29 131.06s3.055.579 4.596.53c2.334-.073 4.623-.698 6.894-1.237 2.213-.526 4.439-1.075 6.541-1.945 2.29-.947 4.469-2.176 6.541-3.536 1.754-1.151 3.442-2.43 4.95-3.889 1.382-1.338 2.551-2.885 3.712-4.419 1.075-1.42 2.179-2.841 3.01-4.419.761-1.454 1.768-4.596 1.768-4.596" transform="translate(0 512.36)"/><path id="path14028" d="M148.91 589.85c.479-.768.682-1.782 1.399-2.34.879-.684 1.911-1.451 3.03-1.539 1.864-.147 3.701.441 5.539.794.66.127.829.807 1.252 1.198.425.393.036.047.053.07l.038.05"/><path id="path14030" d="M175.1 589.29c.367-.708.47-1.724 1.062-2.172.995-.754 2.14-1.386 3.319-1.605a8 8 0 0 1 3.282.094c1.777.42 3.637.709 5.282 1.536.595.299.962.983 1.442 1.474"/></g><g id="g14032" transform="matrix(1.06615 0 0 1 -11.807 0)"><path id="path14034" d="M150.47 592.12c1.368-.571 1.979-2.078 3.474-2.349 1.847-.335 3.716-.235 5.581-.384 1-.08 1.996.566 2.987.706-.199.756-.281 1.538-.893 2.131-.814.788-1.098 1.287-2.023 1.917-.913.621-2.01 1.132-3.11 1.252-.804.088-1.73.236-2.447-.094-.792-.364-1.679-.716-2.243-1.347-.734-.822-.628-.981-1.326-1.831z" style="fill:#fff;stroke-width:.97100002"/><g id="g14036" style="stroke-dashoffset:1"><path id="path14038" d="M157.5 80a2.125 1.875 0 1 1-4.25 0 2.125 1.875 0 1 1 4.25 0" style="fill:#a50;stroke-width:.801" transform="matrix(1 0 0 1.46667 1.5 474.9)"/><path id="path14040" d="M156.625 79.625a.563 1 0 1 1-1.125 0 .563 1 0 1 1 1.125 0" style="stroke-width:.97100002" transform="translate(1 512.36)"/></g></g><g id="g14042" transform="matrix(.96664 -.19269 .18982 .98126 -107.5 46.549)"><path id="path14044" d="M176.48 589.21c1.152-.272 2.274-.822 3.448-.884 1.711-.09 1.425-.044 3.125.243 1.449.244 2.98.196 4.357.717.985.372 2 .801 2.824 1.464.522.42.929.977 1.393 1.465-.792.522-1.464 1.352-2.351 1.63-1.338.419-2.712.739-4.131.668-1.065-.053-2.121.005-3.165-.284-1.558-.431-1.271-.445-2.708-1.187-.731-.377-1.432-.978-1.855-1.696-.392-.667-.625-1.424-.938-2.136z" style="fill:#fff;stroke-width:1.00999999"/><g id="g14046" style="stroke-dashoffset:1"><path id="path14048" d="M187.375 79.313a3 2.688 0 1 1-6 0 3 2.688 0 1 1 6 0" style="fill:#a50;stroke-width:1.04200006" transform="matrix(.91667 0 0 1.02326 15.11 510.46)"/><path id="path14050" d="M185.25 78.875a.75 1.25 0 1 1-1.5 0 .75 1.25 0 1 1 1.5 0" style="stroke-width:1.00999999" transform="translate(0 512.36)"/></g></g></g><g id="g14052" style="fill:#a55"><path id="path14054" d="M164.73 613.02c-1.261 0-1.476 1.615-2.607 2.23-.909.494-1.609.494-2.652 1.854-.819 1.067-2.329 1.364-3.257 2.305-.481.487-1.93-.245-2.203.417-.27.655-.456 1.621.306 1.591.445-.018 1.28.457 1.65.177s.394-.326.959-.376c.895-.079 1.743-.613 2.64-.597.507.009.884.63 1.434.456.637-.202 1.406.002 1.971-.368 1.074-.705 1.859-1.4 3.089-1.59 1.054-.163 1.183-2.437 2.257-2.361.458.033.445.245 1.131-.045.474-.201 1.506 1.853 1.998 1.787.753-.101 1.503.013 2.235.274.701.249 1.2.945 1.877 1.277.463.227.847.627 1.407.524.66-.121 1.324-.193 1.984.118.477.225.972.577 1.516.28.751-.41 1.516-.517 2.333-.513 1.325.006 2.629.471 3.956.387.485-.031 1.42-1.076 1.608-1.551.149-.377-.597-1.302-1.059-.84-1.217 1.216-2.073.803-3.323.398-.862-.279-2.17-.668-2.998-1.121-.745-.408-.735-1.113-1.441-1.579-1.044-.69-2.229-.437-3.331-1.045-.685-.379-1.718-2.069-2.448-2.269-1.185-.324-1.732.134-2.928.004-.486-.053-.905-.445-1.408-.161-.892.504-1.897.884-2.886.848-.621-.023-1.187-.511-1.809-.511z"/><path id="path14056" d="M200.25 574.86c-2.779 0 1.155 5.581.417 8.216-.378 1.351-.27 2.491.458 3.804.915 1.649 2.994 2.139 3.5 3.802.652 2.144-1.478 4.554-.89 6.687.376 1.365 1.395 2.354 1.265 3.863-.208 2.414-1.969 4.505-1.5 6.99.277 1.467-1.304 2.063-1.01 3.402.277 1.26 2.01 2.159 1.496 3.261-.701 1.505.593 2.558 1.504 3.439 1.222 1.413.969 1.755 2.01 2.409 1.454.827 2.445 1.945 2.031 3.616-.311 1.257-1.257 2.248-1.031 3.683.319 2.026.018 4.344 1 6.121.769 1.385.719.798-.322 2.096-1.383 1.725-1.595 4.086-2.088 6.206-.322 1.384.901 3.838 1.633 5.101.812 1.402 1.679 2.474 1.897 4.331.214 1.827 3.256.734 4.75 1.472 1.553.767 2.688 1.818 4.375 2.208 1.876.434 1.525 2.875 2.142 4.419.611 1.529 1.775 2.85 3.108 3.798 1.907 1.357 4.494 1.918 6.92 1.16 2.122-.663 4.103-1.45 5.939-2.785.86-.625 2.583.441 3.01 1.659.491 1.405 2.299 1.787 3.632 2.297 1.34.512 3.203.236 3.745-1.101.634-1.562 2.01-.226 3.03-.234 1.129-.009 2.413-1.107 3.037-1.999 1.782-2.548 1.198-5.752 1.065-8.66-.094-2.049-.727-4.31-2.06-5.907-1.115-1.336-2.156-3.393-3.872-3.639-1.906-.274-1.522-1.178-1.694-2.624-.202-1.702-.382-3.48-1.8-4.775-1.409-1.286-2.862-2.647-4.919-2.462-1.35.121-.061-2.331-.405-3.312-.699-1.993-1.41-4.01-3.086-5.458-1.038-.894-2.838-1.192-3.459-2.357-.665-1.247-.318-2.6.043-3.991.345-1.329 1.421-2.084 1.34-3.585-.147-2.737.117-5.565-1.307-8.05-.719-1.254-2.344-1.554-3.523-2.305-2.261-1.441-4.603-2.89-6.132-5.04-1.413-1.987-1.085-4.699-1.258-7.105-.109-1.516-1.791-2.359-2.801-3.426-2.499-2.639-4.199-5.84-6.451-8.658-1.134-1.419-2.342-3.03-3.834-4-1.796.041-3.475-.252-5.126-1.031-1.512-.713-3.163-1.098-4.78-1.536z"/></g></g><path id="path14058" d="M187.06 705.11s-1.07 3.465-2 5c-.796 1.314-1.867 2.463-3 3.5-1.058.968-2.343 1.653-3.5 2.5-1.345.984-2.932 1.72-4 3-1.194 1.431-2.5 3.137-2.5 5 0 1.491.903 2.991 2 4 1.321 1.215 3.205 2.041 5 2 2.01-.046 4.05-1.103 5.5-2.5 1.073-1.034 2-4 2-4v1c0 .5-.141 2.052-.5 3-.557 1.471-1.436 2.842-2.5 4-1.127 1.227-4 3-4 3v.5s3.979-.833 6-1c.997-.082 2-.082 3 0 2.02.167 6 1 6 1v-.5s-2.873-1.773-4-3c-1.064-1.158-1.943-2.529-2.5-4-.359-.948-.5-2.5-.5-3v-1s.927 2.966 2 4c1.45 1.397 3.487 2.454 5.5 2.5 1.795.041 3.679-.785 5-2 1.097-1.01 2-2.509 2-4 0-1.863-1.306-3.569-2.5-5-1.068-1.28-2.655-2.02-4-3-1.157-.847-2.442-1.532-3.5-2.5-1.133-1.037-2.204-2.186-3-3.5-.93-1.535-2-5-2-5"/><g id="g14060" style="stroke:#000"><g id="g14062" style="stroke-linecap:round;stroke-linejoin:round"><g id="g14064" style="fill:none" transform="translate(0 512.36)"><path id="path14066" d="M149.55 139.42s1.985 3.74 3.182 5.48c1.116 1.622 2.337 3.186 3.712 4.596 1.08 1.107 2.334 2.031 3.536 3.01 1.273 1.032 3.889 3.01 3.889 3.01s2.893-3.246 4.243-4.95c1.178-1.488 2.153-3.131 3.359-4.596.662-.805 2.121-2.298 2.121-2.298"/><path id="path14068" d="M186.85 142.78s3.715 3.366 5.657 4.95c1.434 1.17 3.02 2.323 4.331 3.624.955.945 2.563 2.917 2.563 2.917s2.622-1.846 3.889-2.828c1.389-1.077 2.838-2.101 4.066-3.359.733-.751 1.31-1.639 1.945-2.475.663-.873 1.373-1.716 1.945-2.652.412-.675 1.061-2.121 1.061-2.121"/></g><g id="g14070" style="fill:#55a"><path id="path14072" d="m121.27 658.15-14.14 4.596q8.31 22.273 16.617 44.548c1.887.11 2.881 1.672 3.613 2.738 2.165-1.161 4.73-1.043 6.749.368 1.557.67 2.703 1.671 2.897 3.435.69 2.427-2.243 1.911-2.248 3.458-.587 2.284 1.311 2.325 3.05 2.509 1.593.421 3.416.709 3.7 2.64.747 1.777-.021 3.749-.437 5.535 1.91-.155 3.02.965 3.832 2.569.57 1.91.383 3.939.411 5.916-2.838.488 1.884.801 1.024 2.823.292 1.86-.083 3.607-1.201 5.132 1.671.11 3.957-.361 3.182 2.063.152 2.425-.186 5.057-1.462 7.102-1.34.509-.945 3.71.301 3.936 1.999-.103 1.915 2.263 1.867 3.693-.561 1.855 1.415 2.656 2.944 2.409 4.631.34 9.451.238 13.851 1.834 2.098.282 1.449 3.041-.484 3.072-2.528 1.352-5.471 1.41-8.179 2.231.257 1.269-1.165 4.314 1.163 3.393 4.767-.603 9.555-.988 14.363-.82-2.57-5.807-5.04-11.652-6.889-17.734-3.217-9.256-5.01-18.953-8.539-28.11-2.523-7.04-4.889-14.14-6.759-21.387-1.82-7.101-4.38-13.982-5.974-21.14-2.513-7.583-5.359-15.05-8.05-22.569-2.664.525-5.425-.934-7.986.391-1.537 1.048-3.02-.235-4.09-1.33-1.247-.931-1.668-2.664-3.127-3.304z"/><path id="path14074" d="m226.27 152.68.177 7.425-1.061 10.96-1.591 11.667-1.768 12.374-2.121 14.319-4.066 16.09-3.889 13.965-3.359 12.374-2.798 7.998 5.096.134 7.248.354 5.834.53 3.712-13.258 4.95-17.501 3.536-13.965 3.182-15.203 2.475-12.02 2.121-14.496 1.414-10.43.707-9.899-2.121-.53-1.768-.707-1.061-1.414-.884-1.237-1.591-1.061-2.121 1.414-2.652 1.591-2.121.707-2.121.177z" transform="translate(0 512.36)"/></g><g id="g14076" style="fill:#aaf"><path id="path14078" d="M270.25 598.24c.654 3.26 1.344 9.217 2.02 14.996.335 2.861 1.07 8 1.229 10.879-1.193.129-2.526-.165-3.602.32-1.036.467-2.127 1.102-2.771 2.02-.813 1.161-1.445 2.423-1.721 3.856-.225 1.167-.45 2.394-.196 3.537.394 1.778 2 2.917 2.959 4.409.808.554.104 1.298-.116 1.98-.561.435-1.43.685-2.178.753-1.222.112-2.507.223-3.642-.432-1.492-.86-3.087-1.483-4.434-2.604-1.281-1.067-2.341-2.343-3.302-3.677-.62-.861-1.07-1.786-1.201-2.884-.263-2.206-.322-3.317-.257-5.521-1.578-.555-2.439-.772-3.02-.893-1.849-.384-2.197-1.618-3.705-2.778-1.721-1.324-3.317-2.799-5.064-4.087 1.522-1.846 2.323-3.16 3.542-5.239.556-.948 1.753-2.662 2.696-3.186 1.276-.71 2.23-1.808 3.694-2.052-.166-.53-1-1.119-1.213-1.768a18.7 18.7 0 0 1-.908-5.226c-.026-.991-.284-2.077.04-3 .552-1.579 1.491-2.955 2.403-4.367.501-.775 1.158-1.198 1.948-1.573 1.527-.724 3.065-1.429 4.671-1.96-.182 1.321-.821 2.617-.388 3.964.443 1.378.334 2.988 1.033 4.236.61 1.089 1.341 2.152 2.511 2.736.811.405 1.439 1.203 2.461 1.025 1.023-.178 2.063-.018 3.02-.567.881-.508 1.828-.831 2.438-1.7l1.055-1.196z"/><path id="path14080" d="m268 600.24.125-22c-.585-2.034-1.861.363-2.844.881-1.27.947-2.396 2.289-3.755 2.994-1.915.519-2.152-.588-1.831-2.236.223-7.496.354-14.997 1.175-22.458.365-4.865.983-9.706 1.505-14.556h6.875c2.027 7.573 3.82 15.28 7.253 22.37 1.642 4.263 3.171 9.264 4.117 12.942-.55 1.18-1.553 2.306-2.864 2.813-1.381-.05-1.972-1.865-3.01-2.672-.709-.845-2.064-2.824-2.66-1.12 2.461 6.343 5.078 12.647 7.442 19.01 1.409 12.902 2.621 25.827 4.442 38.679.452 4.459 1.523 9.133.382 13.512-.885 1.104-1.832 2.098-3.349 2.08-1.238.19-2.146-1.699-2.395-2.829-.69-3.255-1.712-6.409-2.9-9.509-2.431-10.487-3.261-21.242-4.745-31.884l-.959-7.522-2 1.5z"/><path id="path14082" d="m264.87 543.36 2.25 33.75"/><path id="path14084" d="m266.25 543.24 6.625 33.12"/><g id="g14086" style="stroke-dashoffset:1" transform="translate(0 512.36)"><path id="path14088" d="M281 119.688a1.75 2.313 0 1 1-3.5 0 1.75 2.313 0 1 1 3.5 0"/><path id="path14090" d="M282.625 130.188a1.438 1.813 0 1 1-2.875 0 1.438 1.813 0 1 1 2.875 0"/></g></g></g><path id="path14092" d="m279.5 83.5 3.25.5 4-3.25 1.5-5 .5-3.25V68l-1.5-3-.75-1.75-2.25-2.5 5.25-8.5 2.75-6.5 2.25-6.25 2.25.5 5.25 4.5 5.5 5.5 5 7.25 4.5 9 2.5 6.75 2.75 10.5.75 9.5v5.75l-.75 7.75-1.5 8-2.25 9-3.75 9L311 139l-5 7.75-6-6.5-5-5.5-4.5-3L294 127v-5l-2-6-3.5-2.75-2.75-1.25-3.5-.25z" style="fill:#aaf" transform="translate(0 512.36)"/></g><path id="path14094" d="M299.7 596.61s-.328 2.784-.819 4.082c-.421 1.111-1.074 2.134-1.79 3.082-.668.884-1.55 1.586-2.311 2.392-.885.937-1.988 1.719-2.621 2.842-.707 1.255-1.461 2.736-1.2 4.152.209 1.133 1.106 2.147 2.082 2.761 1.175.739 2.724 1.103 4.082.819 1.524-.318 2.925-1.406 3.831-2.672.671-.937.96-3.322.96-3.322l.14.76c.07.38.181 1.58.041 2.351-.217 1.196-.694 2.362-1.34 3.392-.685 1.091-2.621 2.842-2.621 2.842l.07.38s2.909-1.191 4.422-1.602a14 14 0 0 1 2.281-.421c1.56-.156 4.702-.081 4.702-.081l-.07-.38s-2.433-.945-3.462-1.72a9.7 9.7 0 0 1-2.462-2.691c-.406-.671-.731-1.831-.801-2.211l-.14-.76s1.12 2.125 2.082 2.761c1.299.859 2.995 1.377 4.533 1.129 1.37-.22 2.687-1.113 3.521-2.222.693-.921 1.169-2.188.96-3.322-.261-1.417-1.494-2.531-2.602-3.451-.991-.823-2.302-1.16-3.462-1.72-.998-.482-2.072-.822-3.01-1.41-1.01-.63-1.982-1.353-2.772-2.24-.922-1.037-2.222-3.521-2.222-3.521"/><g id="g14096" style="stroke:#000"><g id="g14098" style="stroke-linecap:round;stroke-linejoin:round"><path id="path14100" d="M246.07 666.28c1.686.244 2.171-2.19 3.414-2.033 1.363.172 2.707.682 3.657-.53.985-1.255 2.281 1.104 3.404 1.525 2.471.928 4.837 2.368 6.645 4.241 4.218 4.371 7.443 9.76 9.484 15.447 1.123 3.129.835 6.621-.235 9.935-1.758 5.446-3.102 11.08-3.151 16.857-.031 3.634-1.307 7.663.503 10.967 1.748 3.191 2.985 4.659 4.751 7.842.759 1.368 1.323 2.958 1.973 4.283-4.127 4.858-8.679 11.415-12.415 16.584-2.434 3.367-3.584 7.546-6.47 10.609-.908.964-1.937 1.687-2.497 3.238-.973-1.045-.933-3.923-1.254-5.971-.246-1.569-.647-3.816-.849-5.02-1.4.235-2.587 3.063-3.167 4.326-1.986 4.326-3.407 7.23-4.484 11.486-.397 1.569-.888 2.993-1.785 4.31-6.528-.555-13.06-1.103-19.622-1.061 2.724-9.786 5.899-19.457 8.282-29.331 3.275-13.57 6.688-27.13 9.04-40.896 1.323-7.755 2.793-15.504 3.622-23.324.476-4.487.771-8.992 1.156-13.488z" style="fill:#a00"/><g id="g14102" style="fill:none"><path id="path14104" d="M264.19 720.38c-2.466 4.418-5.411 8.693-6.963 13.514-1.643 5.103-1.794 10.532-3.038 15.746-.375 1.569-.603 3.155-1.136 4.681"/><path id="path14106" d="M257.03 685.46c-.2 8.959.303 18.01-.971 26.876-.745 5.184-1.161 10.354-1.806 15.531-.818 6.564-2.02 13.1-1.858 19.739.051 2.151.19 4.296.304 6.443"/></g><path id="path14108" d="M106.75 662.61c-7.842 3.52-15.796 7.99-22.323 13.561-3.427 2.925-5.362 6.346-6.907 10.622-3.649 8.436-7.832 16.665-10.596 25.453-2.372 6.994-4.308 14.14-6.136 21.294-2.809 11.723-6.198 23.296-8.965 35.03-.559 2.563-1.304 1.954-.959 4.594 2.928-3.549 7.228-8.733 10.459-12 3.865-3.239 7.532-6.747 11.979-9.198 3.051-1.707 6.238-3.275 9.478-4.572 2.866-.774 5.683-1.912 8.708-1.532 3.535.023 6.692-.348 9.956-1.92 1.58-.273 3.405-.489 5.065-.252 2.696.967 3.685.378 7.097.107 1.84-3.463 3.01-9.539 5.517-12.649a26 26 0 0 1 4.087-5.302c.047-1.592-.194-2.344-.791-2.57-.596-.226-1.547.074-2.918.587-1.624-.108-3.541-1.241-3.25-3.079-.119-1.896-.093-3.756 1.151-5.308.409-2.044 2.874-.637 4.01-1.934 2.162-.628-.375-2.508.335-4.047.598-1.84.008-1.043 2.162-2.526-5.346-13.993-11.817-30.362-17.16-44.36z" style="fill:#a00"/><g id="g14110" style="fill:none"><path id="path14112" d="M92.28 680.6c1.363 5.614 2.746 11.224 3.829 16.901.744 3.897 1.747 7.758 2.249 11.692.953 7.461.963 15.01 1.7 22.496.361 3.664 1.704 7.177 1.987 10.86.03.388.089.774.134 1.16"/><path id="path14114" d="M87.5 705c2.134 4.64 4.219 9.297 6.151 14.03 1.326 3.248 2.387 6.619 4.165 9.658.849 1.45.844 3.198 1.172 4.815.723 3.567 1.297 7.163 1.947 10.744"/></g><g id="g14116" style="fill:#ff5"><path id="path14118" d="m142.27 678.69 12.25 1.25 14.25 1.25 9.25.25h8.75l10.5-.5 8.75-.5 7.25-1 5.75-1.75 4.75-1.5 2.281-.688.125-2.719c-1.489.559-2.985 1.093-4.531 1.5-5.404 1.423-10.848 2.82-16.406 3.313-10.677.946-21.449 1.014-32.16.438-10.679-.575-21.6-2.374-32.25-3.406.791 1.906 1.05 1.903 1.438 4.063z" style="stroke-dashoffset:1"/><path id="path14120" d="M147.25 694.36c-6.859-1.21 13.901.892 20.872.75 1.959-.04 3.919 0 5.878 0 .543 3.933 1.527 7.833 1.25 11.83.008 1.311.429 3.01-1.486 2.519-1.662-.106-3.134.459-4.548 1.293-1.501.885-3.316 1.313-4.161 3.02-.951 1.928-2.754 3.445-2.898 5.718-.112 1.764-.847 3.439-.119 5.231 1 2.469 1.167 5.419 2.962 7.385 1.614 1.769 4.388 1.629 6.721 2.01 1.792-.263 1.35 1.597 1.628 2.773q.837 4.7.651 9.471c1.927.47 4.158.251 5.851 1.24 2.259 1.319 4.452 2.784 6 4.998.89 1.272 2.221 3.397 2.285 5.03.831.126 1.508-2.63 2.02-3.609 1.094-2.087 1.781-2.478 3.515-4.03 1.327-1.186 2.8-2.488 4.497-2.94 1.491-.398 3.053-.458 4.579-.687-.268-3.179-.12-6.386-.4-9.553-.183-1.305-.858-2.914 1.063-2.918 1.874-.537 3.584-1.317 5.173-2.501 1.357-1.012 2.532-2.033 3.462-3.475 1.017-1.577 1.386-3.464 1.441-5.265.065-2.125 1.086-4.452-.079-6.404-1.263-2.115-1.679-4.228-3.745-5.53-2.778-1.75-7.846-2.494-11.164-1.854.251-4.58.284-9.164.25-13.75 2.779.151 5.579.911 8.342.625 5.71-.591 11.279-2.04 16.908-3.125l-.5 5.25c-3.929.841-7.873 1.549-11.893 1.768-2.474.134-6.01-.383-8.49-.291l-.354 5.834c1.943.02 4.872.54 6.761 1.288 2.261.895 4.273 2.217 5.79 4.02 1.329 1.576 2.394 3.558 2.72 5.584.364 2.267.498 4.516-.008 6.824-.568 2.591-.901 5.342-2.323 7.549-1.276 1.98-3.116 3.479-5.165 4.734-1.504.922-3.306.961-4.947 1.471.466 4.115.866 8.236 1.061 12.374-2.279.572-4.7.546-6.894 1.414-2.484.983-4.616 3.072-6.02 5.334-1.633 2.639-3.884 8.454-3.884 8.454s-1.111.29-2.931.089c-.073-2.246-.803-5.773-1.877-7.489-1.778-2.841-4.63-4.775-7.781-5.922-2.143-.78-4.448-.855-6.679-.643.18-4.226-.277-8.418-.654-12.62-.019-1.351-2.149-.941-3.183-1.264-1.553-.486-3.372-.659-4.608-1.659-2.497-2.02-3.37-5.336-4.283-8.322-.674-2.206-.977-4.487-.467-6.859.698-3.241 2.579-5.933 4.384-8.601 1.095-1.618 2.901-2.421 4.595-3.163 1.665-.729 3.465-1.121 5.276-1.353-.51-2.689-.873-5.389-.707-8.132-3.783.31-7.555.627-11.355.275-3.633-.336-7.289-.072-10.919.255l-1.419-4.447z"/><g id="g14122" style="stroke-dashoffset:1"><path id="path14124" d="M162.281 175.045a4.066 2.74 0 1 1-8.132 0 4.066 2.74 0 1 1 8.132 0" style="stroke-width:.89200002" transform="matrix(.97826 0 0 1.29032 3.351 462.34)"/><path id="path14126" d="M188.62 177.52a3.624 3.27 0 1 1-7.247 0 3.624 3.27 0 1 1 7.248 0" transform="translate(0 512.36)"/><path id="path14128" d="M212.662 176.194a3.27 2.828 0 1 1-6.54 0 3.27 2.828 0 1 1 6.54 0" transform="translate(0 511.66)"/></g></g><path id="path14130" d="M165.31 629.82s.576-.561.933-.75a4.4 4.4 0 0 1 1.399-.438c.592-.09 1.211-.111 1.799 0 .449.085.878.272 1.266.5.2.117.533.438.533.438" style="fill:none"/><g id="g14132" style="stroke-width:.99299997" transform="matrix(1.01871 0 0 1 -4.472 2)"><path id="path14134" d="M158.3 540.69c-3.423 2.164-6.652 4.417-9.415 7.348-1.053 1.117-3.126 5.367-2.888 7.03.183 1.279.29 4.913.763 6.05.528 1.271.297 1.253 1.198 2.643 5.335-1.736 13.01-3.992 18.551-4.927 3.516-.593 7.145-.404 10.699-.194 4.241.251 8.409 1.077 12.536 2.161 3.397.892 6.764 2.01 9.752 3.813 3.281 1.979 5.975 4.794 8.454 7.755 2.434 2.908 5.05 5.717 7.093 8.907 1.47 2.299 2.708 4.748 4.753 6.597 1.509 1.365 2.502 3.455 4.594 4.01 1.361.363 2.564 1.173 4.059.654 1.587-.551 3.303-.575 4.517-1.903 1.248-1.365 3.17-2.14 3.62-4.12.433-1.903 1.862-3.651 1.873-5.578a28.9 28.9 0 0 0-1.397-9.07c-.663-2.053-1-4.168-2.405-5.926-3.045-3.823-5.347-8.203-8.741-11.759-2.334-2.446-4.6-4.966-6.998-7.344-1.461-1.449-3.196-2.392-5.086-3.375-2.109-1.098-3.855-2.415-5.823-2.6-17.05 0-32.665-.177-49.713-.177z" style="fill:#55a"/><g id="g14136" style="fill:none"><path id="path14138" d="M170.25 551.86c.611 2.933 2.972 4.95 5.874 5.524.713.141 1.412.339 2.126.476"/><path id="path14140" d="M175 549.11c.738 2.448 1.958 5.113 4.704 5.858 3.54.961 7.239 2.065 9.796 4.892"/><path id="path14142" d="M190.25 551.61c1.87 2.608 4.199 4.867 7.185 6.212 4.233 1.906 6.949 6.05 9.114 10.01 1.47 2.685 2.959 5.359 4.451 8.03"/><path id="path14144" d="M209.25 562.11c2.283 4.01 4.734 7.922 6.995 11.94 1.583 2.813 1.85 6.146 1.255 9.31"/><path id="path14146" d="M209.66 553.85c2.849 6.05 6.769 11.622 8.895 17.982 1.288 3.853.808 9.279.868 13.32"/><path id="path14148" d="M213.19 551.02c.97 3.898 2.66 7.522 4.633 11.03 3.673 6.531 5.329 14.268 4.604 21.761-.043.446-.386 3.635-.467 4.076"/><path id="path14150" d="M215.84 548.2c.839 3.4 2.398 6.524 4.085 9.575 2.17 3.925 3.332 8.268 4.43 12.605.759 2.996 1.534 6.04.834 9.153-.451 2.01-1.094 7.845-1.246 9.893"/><path id="path14152" d="M224.68 560.57c.522 3.377 1.257 6.711 2.504 9.913 1.279 3.283.637 6.843.688 10.285.029 1.981-1.575 7.664-2.19 9.538"/><path id="path14154" d="M228.4 563.04c.286 3.169 1.04 6.221 2.152 9.249 1.881 5.124-.685 13.07-3.054 18.03"/><path id="path14156" d="M232.81 569.94c1.636 2.47 2.243 5.422 1.956 8.381-.361 3.712-2.535 10.489-5.294 12.461"/></g></g><path id="path14158" d="M149.59 564.66c-.85.184-1.737.333-2.5.75-.674.368-1.517.768-1.75 1.5-.209.655.048 3.482.5 4 .59.676.588.899 2.375 1.25 1.227.241 2.693.156 3.875-.25 1.774-.609 4.653-1.728 6.412-2.01 2.49-.403 4.979-.941 7.5-1 2.927-.069 5.855-1.276 8.75-.841 3.12.469 6.222.176 9.25 1.061 2.986.873 5.883 2.041 8.75 3.25 1.614.681 3.068 1.76 4.75 2.25 1.29.376 2.647.438 3.938.813 1.504.436 2.838 1.162 4.313 1.688.971.346 1.985.568 3 .75.743.133 2.25.25 2.25.25s-2.291-3.512-3.75-5c-2.369-2.416-5.074-4.925-8-6.625-4.362-2.535-9.08-4.259-14-5.375-4.314-.979-8.828-.87-13.25-.75-3.02.082-6.01.612-9 1-2.256.292-4.498 1.21-6.75 1.53-1.832.261-4.853 1.371-6.662 1.763z" style="fill:#fa5"/><g id="g14160" style="fill:none"><path id="path14162" d="M141.86 590.48c-.083 2.62.61 5.505-.553 7.874-1.347 2.746 2.03 7.214 1.123 10.346-.717 2.478-6.242 3.171-5.274 5.543.796 1.953-.363 5.753-3.132 4.232-1.662-.913-.929-3.817.599-3.478"/><path id="path14164" d="M136.83 626.15c-3.43 1.962-5.711 6.985-6.443 10.764-.504 2.601-1.661 5.345-3.778 7.097-1.328 1.098-3.083 1.788-4.628.877"/><path id="path14166" d="M140.54 654.88c-2.605-1.392-1.316-4.827-1.945-6.629-.851-2.441-2.136-5.02-1.768-7.601.419-2.935.513-14.03.619-17.06l.181-2.103 1.5-2.375 1.25-1.5v-2.375l1.625-1.25 2.375-1.25 1.5-1.5.25-1.875"/><path id="path14168" d="M121.98 656.56c3.235-.058 4.301-.697 5.714-2.733 1.489-2.145 2.574-5.376 4.1-7.356 1.432-1.859 2.612-9.33 5.538-10.04"/><path id="path14170" d="M201.87 575.74c.628 4 2.543 7.671 3.03 11.693.439 3.646 3.766 6.471 3.136 10.176-.599 3.528.189 7.18-1.038 10.631-1.337 3.76 2.251 5.908 3.385 9.01 1.194 3.261 1.176 6.582 4.395 8.876 3.506 2.498-.56 6.937-1.628 9.894-1.327 3.673-2.033 8.443.21 11.858 2 3.046 6.522 1.058 8.453 5.505 1.317 3.03 2.821 6.647 5.959 7.858 3.386 1.306 7.866.644 10.406-1.876 2.75-2.729.007-8.912-4.362-9.12-3.513-.168-6.707 7.861-1.193 6.124"/><path id="path14172" d="M204.76 576.61c2.368 3.634 3.398 9.481 4.358 13.652.724 3.146 1.507 6.02 1.339 9.322-.202 3.992.731 7.677 1.422 11.778.533 3.167.857 6.568 3.125 8.625 2.651 2.404 6.777 3.118 6.389 7.13-.384 3.967-1.475 7.724-3.01 11.37-1.596 3.783 2.544 8.444 5.375 9.875 3.01 1.524 8.674.254 9.09-3.634.469-4.365-1.094-8.913-3.3-4.571-1.625 3.199-6.785 1.638-5.57-3.086.927-3.605 3.315-3.221 3.653-6.541.348-3.424-.843-4.919-1.583-8.126-.788-3.413-7.278-3.517-8.894-7.147-1.607-3.611-1.842-7.715-2.148-11.645-.432-5.553-.617-11.176-2.383-16.567-.938-2.864-.256-5.81-2.367-8.308"/><path id="path14174" d="M217 588.11c1.419 3.674 1.753 7.608 2.821 11.403 1.167 4.146 2.898 7.853 2.844 12.197-.05 3.989 4.134 5.03 5.777 8.437 1.647 3.413 2.089 6.447 2.455 9.846.333 3.099-2.907 7.946 2.3 8.375 3.03.25 5.852 1.597 7.432 4.422 2.063 3.687 1.426 7.829.997 11.821-.302 2.804 1.316 6.298-2.5 7.125"/><path id="path14176" d="M225 602.49c.886 2.306.958 4.937 2.205 7.05 1.648 2.79 7.939 3.51 5.67 7.825-1.905 3.623 1.229 7.07 1.405 10.625.171 3.474 1.191 9.189 4.22 8.5 4.272-.972 3.375 2.297 4.694 4.154 1.863 2.623 3.898 4.125 3.785 7.658-.105 3.283-2.816 5.444-2.844 9.188-.02 2.739 3.454 4.159 4.364 6.501"/><path id="path14178" d="M249.75 644.74c1.042 3.696 2.494 7.141 2.906 11.126.292 2.822-3.03 5.818-4.287 1.82-.453-1.436.905-2.595 1.631-3.821"/><path id="path14180" d="M122.95 639.32c-.069.471-.27.965.073 1.418.438.578 1.136.964 1.857.745.655-.198 1.212-.679 1.379-1.363a13 13 0 0 0 .315-1.949"/><path id="path14182" d="M121.09 645.07c.645.47 1.431.82 1.797 1.59.523 1.1.858 2.429.306 3.564-.343.705-.396 1.681-1.099 2.097-.767.456-1.751-.1-2.366-.659-.449-.409-.096-1.046-.141-1.554"/><path id="path14184" d="M137.9 646.79c-.686 1.281-1.495 2.511-1.782 3.949-.372 1.864-.873 3.745-1.789 5.447-.845 1.57-1.894 3.038-3.059 4.429-.43.513-.805 1.058-1.477 1.333-.69.282-1.287.745-1.994.989-.624.216-2.538.081-2.533-.678"/><path id="path14186" d="M147.12 614.49c-.595 1.11-1.13 2.458-2.443 2.869-1.214 1.01-1.755 2.617-2.184 4.091-.631 2.267-1.537 4.51-1.405 6.913-.013 3.133.329 6.26.156 9.395.035 2.57-.403 4.658 1.047 6.899 1.111 1.296 3.322 2.487 4.199 4.03.584 1.356.806 3.396-.598 4.327-1.634.944-4.266-.643-3.697-2.125.184-.539.87-1.638 1.293-1.552"/><path id="path14188" d="M148.24 618.36c-1.016 1.875-1.952 3.82-2.314 5.942-.211 1.67-.97 3.242-.879 4.953-.052 3.282.196 4.262.241 7.544.108 1.926.948 3 2.191 5.78 1.61 1.46 1.517 5.748 1.715 7.765.085.892-.146 1.764-.265 2.641"/><path id="path14190" d="M150.62 114.87s-.997 1.603-1.25 2.5a7.7 7.7 0 0 0-.25 2.875c.104.996.378 2.01.875 2.875.336.589.897 1.019 1.375 1.5.561.565 1.39.915 1.75 1.625.323.636.25 2.125.25 2.125" transform="translate(0 512.36)"/></g><path id="path14192" d="M119.87 781.61c-2.564-.511-4.936-1.69-7.248-2.937-1.307-.705-2.604-1.574-3.549-2.691-1.081-1.277-1.755-2.777-2.353-4.376-.535-1.431-1.231-3.223-.225-4.246.869-.883 1.331-.706 1.419-1.77.164-1.98-.358-3.932-.264-5.88.081-1.675.643-3.26 1.51-4.74 1.6-2.731 2.386-5.848 3.745-8.708 1.386-2.918 1.932-6.164 3.236-9.105 1.221-2.753 2.649-5.413 4.476-7.818 1.024-1.348 2.01-2.841 3.378-3.831 2.455-1.771 4.856-3.722 7.759-4.714 1.153-.394 2.204-1.408 3.391-1.405 1.433.003 2.961.291 4.216.946 1.051.548 1.656 1.543 2.16 2.66.76 1.687.049 3.585-1.148 4.806-.708.722-1.949.556-2.887.932-2.287.917-4.851.684-7.174 1.404-1.696.525-2.853 1.904-4.196 3.02-.93.775-.391 1.511.35.683 1.023-1.144 1.998-2.853 3.48-3.198 3.716-.867 7.435-1.889 11.202-2.391 1.194-.159 2.525.295 3.206 1.532.923 1.677 1.522 3.571 1.017 5.324-.36 1.249-1.735 2.129-3.192 2.214-2.289.133-4.567.462-6.83.828-2.201.356-3.638 1.809-5.426 3.15-.933.7-.999 1.588-.052.808 2.666-2.196 3.117-2.548 5.096-3.157 2.228-.686 4.473-.966 6.725-1.513 1.363-.331 2.936.029 4.101.833.657.454.636 1.676.828 2.49.24 1.012-.267 1.803-.889 2.592-.788.998-2.1 1.405-3.208 1.954-1.586.787-3.441.928-4.916 1.971-.752.532-1.671 1.237-2.387 1.713-.692.46-1.381.698-1.222 1.234.108.364 1.681-.633 2.369-1.048 2.748-1.658 5.1-4.135 8.195-5.09.863-.266 1.073.315 2.01.785.975.488 1.464.868 1.393 1.982-.082 1.28.594 2.7.19 3.878-.57 1.662-2.297 2.593-3.936 3.148-1.236.419-2.268 1.233-3.227 2.101-.854.772-1.392 1.74-2.43 2.298-1 .537-2.434.689-2.945 1.702-.307.609 2.219-1.377 2.25-.416.038 1.165-.061 2.253-.596 3.325-.506 1.013-.85 2.048-1.781 2.785-2.095 1.657-3.164 4.415-5.263 5.991-1.894 1.421-4.438 1.673-6.815 1.744-.99.03-1.688.066-1.919 1.321-.216 1.173.05 2.309 0 3.5-.061 1.449-.506 3.599-1 3.5z" style="fill:#faa"/><g id="g14194" style="fill:none"><path id="path14196" d="m118.5 738.61.5 2.75c.851.82 2.15.909 3.125.25"/><path id="path14198" d="M121.12 743.24c.145 1.66-.508 3.812 1.178 4.908.884.656 2.027.641 3.072.592"/><path id="path14200" d="M126.62 754.36c-.018 1.215.179 2.566 1.544 2.847.445.376.834-.024 1.206-.222"/></g><path id="path14202" d="M45 269.75s2.238-2.866 3-4.5l1.75-3.75 3.5-3.125 4.25-5.25 4.375-4.5L65.5 245l5.75-4.125 5.875-3.125 6.125-3 5.625-1.375 4 .375 3-.875 4.25-.625 3.5-.875 1.75-.125 2 .125 1.875.75 1.75-.375 1.625-.125c.343-.026 1-.25 1-.25s-.523 1.493-.75 2.25l-.75 2.5L111 239l-.875 2.125-1.5 2.875-1.125 2.875V250l-.5.875-1.25.625H103l-.625 1.25-2 1.75-1.75-.125h-3.5l-2.25 2.375-1.875 2.5-1.75 3-1.875 2.75-.5 1.375-.25 1.125.75-1.375.875 1.625c.322.597.375 2 .375 2l-43.12-.125z" style="fill:#55a" transform="translate(0 512.36)"/><g id="g14204" style="fill:none"><path id="path14206" d="M59.12 781.74c1.915-3.569 4.269-6.904 6.875-10"/><path id="path14208" d="M62.875 781.61c1.742-2.628 3.608-5.172 5.875-7.375"/><path id="path14210" d="M66.62 781.49c1.54-1.714 3.321-3.249 4.5-5.25"/><path id="path14212" d="M72.875 781.36c.799-.989 1.593-1.958 2.125-3.125"/><path id="path14214" d="M77.25 769.24c.933-2.054 1.52-4.28 2.893-6.113 1.528-2.04 3.104-4.125 5.09-5.707 3-2.391 6.534-4.045 9.673-6.247 1.347-.945 2.531-2.12 4.099-2.704 1.3-.485 2.077-1.756 2.923-2.799.739-.91 1.729-1.262 2.697-1.804"/><path id="path14216" d="M101.12 750.36c1.105-.991 2.04-2.523 3.636-2.625.868-.056 1.761.151 2.489-.5.872-.78 1.396-1.959 2.125-2.875"/><path id="path14218" d="M101.37 758.99c-2.269 2.971-4.852 5.679-7.08 8.686-2.025 2.738-4.542 5.183-6.14 8.18-1.026 1.924-1.532 4.068-2.534 6.01"/><path id="path14220" d="M107.5 758.61c-1.614 1.731-3.124 3.547-4.625 5.375"/></g><path id="path14222" d="m264.9 269.18.354-2.21.972-1.856.972-2.21.619-2.386.177-2.475.707-2.828.884-2.386 1.503-3.01.796-3.624v-2.475l.177-2.74.884-2.652 1.503-2.386 1.237-1.945.442 1.945.972 1.503 2.386 1.768 2.74 2.563 2.828 1.326 2.563.707 2.033.354h1.414l3.977-1.237 1.679-1.149 1.945-1.237 1.591-.796.088-1.679 1.591 4.861 2.033 4.243 1.326 3.094 1.503 3.712 1.414 4.773.53 4.861-.177 4.508.177 1.237z" style="fill:#a00" transform="translate(0 512.36)"/><path id="path14224" d="M277.62 744.86c-.696-.133-1.593.35-1.875 1-.455 1.048.331 2.311.884 3.311.456.824 1.216 1.449 1.925 2.069 1.501 1.314 3.165 2.447 4.883 3.461 1.078.636 2.178 1.287 3.381 1.633 1.182.34 2.439.456 3.668.405 1.266-.052 2.526-.335 3.73-.728 1.202-.393 2.378-.916 3.435-1.611.955-.629 2.048-1.257 2.567-2.276.417-.818.364-1.829.268-2.743-.042-.399.025-1.055-.365-1.147-1.291-.304-1.737 2.027-2.774 2.855-1.129.901-2.352 1.74-3.702 2.252a9.1 9.1 0 0 1-3.324.601c-1.139-.017-2.302-.248-3.344-.708-1.818-.801-3.345-2.169-4.845-3.472-1.145-.993-2.128-2.16-3.142-3.287-.472-.525-.675-1.484-1.368-1.617z" style="fill:#fff"/><g id="g14226" style="fill:none"><path id="path14228" d="M292.48 762.98c-1.582.428-3.269.315-4.88.089-1.432-.201-2.817-.705-4.148-1.27-.708-.301-1.359-.723-2.02-1.117"/><path id="path14230" d="M292.65 767.22c-1.811.813-3.799 1.153-5.762 1.25-2.097.104-4.239-.037-6.258-.72"/><path id="path14232" d="M293.54 771.64c-1.752 1.153-3.708 2.06-5.757 2.448-1.36.258-2.768-.064-4.152-.114-.91-.033-1.821-.109-2.73-.124"/><path id="path14234" d="M293.98 776.24c-1.878.332-3.628 1.191-5.5 1.536-2.143.394-4.33.633-6.509.598-.271-.004-.539-.064-.808-.101"/><path id="path14236" d="M302.11 756.61c-.095 1.383.192 2.758.461 4.11.31 1.562.905 3.054 1.321 4.592.445 1.642.972 3.27 1.257 4.947.331 1.949.374 3.936.519 5.907.028.375.044.751.067 1.127"/></g><path id="path14238" d="M291.62 753.61c-1.833-.069-3.37.343-5-.5-2.552-1.32-4.715-3.56-6.679-5.644-.603-.98-1.253-1.921-2.196-2.606.198-1.932.744-3.867.226-5.794-.267-2.46-.835-4.971-2.344-6.984-2.119-3.263-3.906-6.742-5.796-10.129-.478-1.672-.884-3.353-.711-5.105.027-3.88.188-7.799.923-11.611.657-2.219 1.297-4.442 1.376-6.77.188-1.504 1.016-2.882 1.63-4.251.865-1.512 2.061-2.787 3.133-4.13.442-1.144 1.227-2.244.755-3.506-.068-1.37.7-2.677 1.558-3.72 1.123.261 2.502.04 3.147 1.202 1.112.823 1.342 2.191 1.603 3.46.082 2.048-.031 4.078-.53 6.073-.323 1.79-1.131 3.515-2.47 4.765-1.044.084-1.348.332-2.293-.146.713.701 1.027.884 1.561 1.682-.21 1.738.927.188 1.612-.258 1.577-1.076 3.531-1.518 5.281-2.285 1.885-.617 3.814-1.338 5.128-2.906 1.01-.375 2.265-.889 2.42-.919 2.194.199 3.837-.112 6.04-.042 1.384 1.135 2.375 2.747 2.489 4.559.283 1.042.045 2.271-.989 2.782-.95.784-1.717 1.777-2.875 2.284 1.556.413 3.234.541 4.745.984.816.628 1.546 1.303 1.438 2.421.123 1.725.32 3.54.103 5.23-.812 1.697-2.744 2.185-4.285 2.991-.821-.13 1.568.732 1.58 1.439.343.975 1.01 1.822 1.43 2.722-.033 1.666.606 3.292.136 4.938-.868.687-2.278.945-3.433 1.151-1.8-.299.058.806.598 1.405.811.594 1.5 1.539 1.632 2.496-.437 1.16-.761 2.736-2.229 2.93-1.686.768-2.4 1.096-1.652 3.107.372 2.637-.116 5.296.128 7.948-.189 2.498.951 4.814 1 7.293.123.987.334 2.215-1.052 2.043-2.171.494-4.248 1.823-6.556 1.442l-.585-.039z" style="fill:#faa"/></g><g id="g14240" style="fill:none"><path id="path14242" d="M279.48 700.75c-.236.589-.795 1.139-.707 1.768.097.693.545 1.511 1.153 1.788.788.359 1.725.616 2.567.47 2.127-.37 4.23-.829 6.356-1.196.877-.151 1.663-.802 2.597-.598 1.882.41 3.854.659 5.765.213.566-.132 1.143-.214 1.714-.321"/><g id="g14244" style="stroke-linecap:round;stroke-linejoin:round"><path id="path14246" d="M284.02 704.6c-1.132.863-3.479 1.243-4.119 2.516-.296.589-.291 2.699.291 3.01 2.028 1.072 4.398 1.36 6.646 1.8 1.509.295 3.112.476 4.579.912 1.51.449 2.897 1.01 4.426 1.358 1.147.265 2.398-.025 3.53.271.396.104.766.287 1.149.431"/><path id="path14248" d="M286 711.93c-.707.059-3.182-.013-3.684.489-.548.548-.702 2.231-.354 2.923.702 1.394 2.204 1.578 3.488 2.472 1.027.716 1.922 1.626 3.139 2.049 1.756.611 3.506 1.254 5.099 2.245 1.636 1.017 3.31 1.976 5.114 2.673.284.11.558.244.837.366"/><path id="path14250" d="M294.58 722.75c-1.469-.306-3.123-.969-4.633-.915-.439.016-3.873-.273-4.706.007-.823.277-1.696.191-2.155.927-.438.702-.747 2.259-.239 2.912 1.059 1.362 2.777 2.052 4.387 2.735 2.562 1.087 5.111 2.188 7.721 3.149.857.316 1.765.835 2.651.794.564-.026.989.089 1.532.111.341.014.71-.534 1.034-.426"/></g></g><path id="path14252" d="m288.15 216.85 6.894 52.5 9.205.177-6.553-49.5-3.359-1.061-2.652-.884z" style="fill:#fa5" transform="translate(0 512.36)"/><g id="g14254" style="stroke-linecap:round;stroke-linejoin:round"><g id="g14256" style="fill:none"><path id="path14258" d="M278.6 720.2c-.217 1.621-.824 3.244-.687 4.865.205 2.42 1.022 4.763 1.796 7.06.1.296.321.535.482.803"/><path id="path14260" d="M276.48 733.46c1.064 1.143 1.986 2.446 3.162 3.464.798.69 1.876 1.066 2.604 1.817.309.319.516.722.774 1.084"/></g><path id="path14262" d="m123 725.86-.125-1.75c-.417-.375.042-.375-.375-.75-.728.234-2.327.182-3.058.362-.533-.142-1.1-.216-1.613-.399-.433-.389-.966-.722-1.338-1.146-.102-.913-.346-1.82-.351-2.738.06-.747.032-1.523.145-2.251.595-.768 1.043-1.666 1.838-2.255.296-.316.636-.554 1.071-.622.859-.255 1.708-.54 2.557-.825.034-.487.24-.996-.052-1.442-.287-.568-.404-1.181-.457-1.81-.004-.396-.273-.861.098-1.158.33-.401.603-.881.967-1.233.528-.148 1.04-.471 1.598-.281.415.084.875.076 1.262.216.689.682 1.387 1.376 1.977 2.139.132.28.153.975.496.455.492-.4.888-.961 1.542-1.095.543-.158 1.06-.493 1.621-.53.621.058 1.267.04 1.872.146.961.617 1.943 1.218 2.861 1.891.36.529.828 1.01 1.12 1.567.133.626.402 1.247.448 1.877-.105.424-.11.907-.275 1.295-.669.526-1.356 1.034-1.861 1.73-.194.284-.168.706-.198 1.039.14.319.117.8.57.806.661.105.172.245-.196.38-1.495.613-3.01 1.176-4.494 1.82-1.854 1.176-3.756 2.294-5.498 3.633l-1.776 1.554-.375-.625z" style="fill:#fa5"/><g id="g14264" style="fill:none"><path id="path14266" d="M122.75 723.24c.125-.75.375-1.875.5-2.625.522.237 1.027.56 1.559.746.749-.104 1.557.033 2.237-.355.413-.22.925-.311 1.276-.61.556-.742 1.172-1.454 1.691-2.214.199-.892.442-1.769.824-2.602.224-.169.692.152 1.012.175.842.217 1.655.568 2.538.565.677.133 1.327-.218 1.987-.331"/><path id="path14268" d="M121.87 713.36c.658.281 2 .58 2.528 1.052.394.719.805 1.429 1.097 2.198-.248.6-.339.147-.438-.252-.192-.571-.305-1.161-.437-1.748"/><path id="path14270" d="M127.75 710.61c.054.669-.388 1.701-.083 2.292.236.143.612.881.677.301.013-.367-.249-.728-.344-1.093-.292-.375.042-1.125-.25-1.5"/></g><g id="g14272" transform="translate(0 512.36)"><path id="path14274" d="m88.75 269.56 28.25-.313-1.625-1.188-2.313-1.25-3.125-2.188-1.438-1.688-1.375-2.375-.438-2.375-.563-1.438.063-1.563.875-.813.938-1v-1.438l-.25-1.938-1 1.125-1.125.375-1.313.063-1.125.125-.625 1.375-1.313.938-1.813.438h-2.438l-1.688-.188-2.375 2.375-1.625 2.5-1.813 2.75-1.75 2.938-.438.875.438 1 .5 1.063.375.75z" style="fill:#a00"/><g id="g14276" style="fill:none"><path id="path14278" d="m88.69 268.5 1.313-2.438 1.688-2.125 1.688-1.938 1.625-2.313 1.625-2.5.938-1.125 1.125-1.25"/><path id="path14280" d="m101.62 264.75.875.938 1.313 1.125 1.375.688 1.625.688 1.688.563 1.25.375"/></g></g><g id="g14282" style="fill:#fa5"><g id="g14284" transform="translate(0 512.36)"><path id="path14286" d="m137.8 246.73 1.856-1.503 2.121-2.033 1.945-1.149 1.856-1.061.795-.177v1.326l-.177 1.591.354 1.061 1.237.53 1.061.884.088 1.945.177 1.326.53 1.061 1.679.707 1.768.177 2.033-.088 3.01.088 2.652.53 2.475.265 2.033.265 1.149.972.442 1.679-1.149.884-3.182 1.061-3.624.795-1.149.707-.795.088v1.237l-.088.884v.707l-1.679.707-.796.265v1.414l.53 1.591.884 2.563.53 1.237-4.685.354-6.01-.177-3.801.177-2.74-.265-.619-1.679-.619-1.149-2.21.884-2.121.442-1.945.884-1.679.354-2.033.354-1.591-.177-.972-.354-.354-1.591.53-1.061-.354-1.061-.707-.796.177-1.503 1.149-1.061 2.033-.707 3.182-1.237 2.121-1.237 1.591-1.149 1.237-1.503 1.856-2.298-1.237-1.326.53-2.033.972-1.945z"/><path id="path14288" d="m126.04 265.73 7.07-1.503 5.48-2.475 6.099-1.679 5.922-1.768 4.508-.972 4.773-.884 4.154-.442 1.503-.53" style="fill-opacity:.331"/></g><path id="path14290" d="m138.2 779.03 3.775-.922 6.123-1.664 3.494-.673 2.513-.556" style="fill-opacity:.331"/></g><g id="g14292" style="fill:none"><path id="path14294" d="M138.15 761.74c1.267-.837 2.568-1.627 3.949-2.262 1.09-.53 2.01-1.334 3.02-1.98.281-.174.634-.098.951-.15l.387-.028"/><path id="path14296" d="M138.24 765.54c.914-.501 1.774-1.112 2.724-1.539l1.784-.405c.612.377 1.216.821 1.942.939.512.269 1.072.159 1.577-.055.449-.175 1.021-.189 1.36-.56l1.307-1.384"/></g></g><g id="g14298" transform="translate(0 512.36)"><path id="path14300" d="m156.5 269.37-1.5-2.75-.625-2.125-.125-1.25 1.25-.875 2.375-.5 9.125-.75 7.5-.5h9.5l15-.5 9.75.125h8l8.375.25 7.75.375 5.375.5 5.25.75.5 2.375v4.75z" style="fill:#fa5"/><path id="path14302" d="m155 265.12 5.25-.625 8.625-.875 10.125-.625 14.625-.625H208l9.25-.125 8.625.25 6.75.375 7.5.75 3.625.375.125 1.625-5.375-.125-9.625-.875-9.75-.25H209.5l-9.25-.125-14.75.5-10.125.5-8 .75-6 .75a31 31 0 0 0-5.625.875z" style="fill:#ff5"/><g id="g14304" style="stroke-linecap:round;stroke-linejoin:round"><path id="path14306" d="m244 268.75-3.5-2.75-3.5 2.875-3.375-3.5-3.125 3.5-3.625-3.625-4.75 3.375-4.5-3.25-3.375 3.125-3.625-3-3.375 3.5-4.25-3.625-3.25 3.375-4.75-3.375-3.25 3.25-4.5-3-4 3.125-3.375-2.75-5 3-4.375-2.25-3.75 2.375-4.5-2-4.25 2.125" style="fill:none"/><path id="path14308" d="m276.5 222.37-2.75 3.375-4.625 6.125-5.5 8.25-2.875 5.375-3 4.5-2.25 2.75-1.625 4.875-.875 3.875-.625 1.5-.875 2.125-.125 1.875v2.25H265l.5-2.875 1.125-2 .875-2.375.5-3.375.875-4.125 1.625-3.5 1.125-3.75.25-3.875v-2.125l1.875-4.25 2-3.375 2-1.5.75-3.75-.625-2.875z" style="fill:#55a"/><path id="path14310" d="m271.5 241.5-1.875 2.75-2.375 3.875-1.625 3.625-1.625 4.125-1.375 4-.875 4.125" style="fill:none"/></g></g><g id="g14312" style="stroke-linecap:round;stroke-linejoin:round"><path id="path14314" d="M300.96 740.26c1.892 1.446 2.711 2.988 4.242 5.01 2.11 4.271 4.178 7.876 5.755 13.07 1.242 3.03 1.241 6.395 2.456 9.448 1.326 3.674.929 7.612 1.161 11.426.306 1.391.552 3.14-1.345 2.562l-4.492-.066c-.59-2.901.73-5.777.077-8.681-1-7.867-5.86-14.473-8.01-21.984-.388-2.415-1.45-4.679-1.437-7.165-.18-1.321-1.191-3.737-.707-5.04z" style="fill:#55a"/><path id="path14316" d="M299.81 743.98c1.25 1.333 2.562 2.657 3.462 4.262.644 1.357.805 2.887 1.48 4.235.608 1.294 1.087 2.667 1.148 4.107.161 1.953.233 5.149.274 7.108" style="fill:none"/></g></g></g><path id="path14318" d="M80 552.36c-1.333 6.667-2.855 8.392-5.333 12-2.135 3.109-5.122 5.562-8 8-2.917 2.471-6.248 4.408-9.333 6.667-3.586 2.625-7.819 4.588-10.667 8C43.483 590.842 40 595.391 40 600.36c0 3.975 2.408 7.975 5.333 10.667 3.523 3.241 8.548 5.444 13.333 5.333 5.369-.124 10.8-2.94 14.667-6.667 2.862-2.758 5.333-10.667 5.333-10.667v2.667c0 1.333-.133 7.29-1.333 10.667-1.404 3.951-3.83 7.579-6.667 10.667-3.01 3.273-10.667 8-10.667 8v1.333s10.612-2.221 16-2.667c2.658-.22 5.342-.22 8 0 5.388.446 16 2.667 16 2.667v-1.333s-7.66-4.727-10.667-8c-2.836-3.088-5.263-6.716-6.667-10.667-1.2-3.376-1.333-10.667-1.333-10.667v-2.667s2.471 7.908 5.333 10.667c3.867 3.726 9.298 6.543 14.667 6.667 4.786.11 9.811-2.092 13.333-5.333 2.925-2.692 5.333-6.691 5.333-10.667 0-4.969-3.483-9.518-6.667-13.333-2.848-3.412-7.08-5.375-10.667-8-3.085-2.258-6.416-4.195-9.333-6.667-2.878-2.438-5.865-4.891-8-8-2.478-3.608-4-5.333-5.333-12"/><path id="path14320" d="M280 1012.36c-1.333-6.667-2.855-8.392-5.333-12-2.135-3.109-5.122-5.562-8-8-2.917-2.471-6.248-4.408-9.333-6.667-3.586-2.625-7.819-4.588-10.667-8-3.184-3.815-6.667-8.364-6.667-13.333 0-3.975 2.408-7.975 5.333-10.667 3.523-3.241 8.548-5.444 13.333-5.333 5.369.124 10.8 2.94 14.667 6.667 2.862 2.758 5.333 10.667 5.333 10.667v-2.667c0-1.333-.133-7.29-1.333-10.667-1.404-3.951-3.83-7.579-6.667-10.667-3.01-3.273-10.667-8-10.667-8v-1.333s10.612 2.221 16 2.667c2.658.22 5.342.22 8 0 5.388-.446 16-2.667 16-2.667v1.333s-7.66 4.727-10.667 8c-2.836 3.088-5.263 6.716-6.667 10.667-1.2 3.376-1.333 10.667-1.333 10.667v2.667s2.471-7.908 5.333-10.667c3.867-3.726 9.298-6.543 14.667-6.667 4.786-.11 9.811 2.092 13.333 5.333 2.925 2.692 5.333 6.691 5.333 10.667 0 4.969-3.483 9.518-6.667 13.333-2.848 3.412-7.08 5.375-10.667 8-3.085 2.258-6.416 4.195-9.333 6.667-2.878 2.438-5.865 4.891-8 8-2.478 3.608-4 5.333-5.333 12"/><path id="path14322" d="M30 602.36c-.5 2.5-1.071 3.147-2 4.5-.801 1.166-1.921 2.086-3 3-1.094.927-2.343 1.653-3.5 2.5-1.345.984-2.932 1.72-4 3-1.194 1.431-2.5 3.137-2.5 5 0 1.491.903 2.991 2 4 1.321 1.215 3.205 2.041 5 2 2.01-.047 4.05-1.103 5.5-2.5 1.073-1.034 2-4 2-4v1c0 .5-.05 2.734-.5 4-.527 1.482-1.436 2.842-2.5 4-1.127 1.227-4 3-4 3v.5s3.979-.833 6-1c.997-.082 2-.082 3 0 2.02.167 6 1 6 1v-.5s-2.873-1.773-4-3c-1.064-1.158-1.973-2.518-2.5-4-.45-1.266-.5-4-.5-4v-1s.927 2.966 2 4c1.45 1.397 3.487 2.454 5.5 2.5 1.795.041 3.679-.785 5-2 1.097-1.01 2-2.509 2-4 0-1.863-1.306-3.569-2.5-5-1.068-1.28-2.655-2.02-4-3-1.157-.847-2.406-1.573-3.5-2.5-1.079-.914-2.199-1.834-3-3-.929-1.353-1.5-2-2-4.5"/><path id="path14324" d="M330 962.36c-.5-2.5-1.071-3.147-2-4.5-.801-1.166-1.921-2.086-3-3-1.094-.927-2.343-1.653-3.5-2.5-1.345-.984-2.932-1.72-4-3-1.194-1.431-2.5-3.137-2.5-5 0-1.491.903-2.991 2-4 1.321-1.215 3.205-2.041 5-2 2.01.047 4.05 1.103 5.5 2.5 1.073 1.034 2 4 2 4v-1c0-.5-.05-2.734-.5-4-.527-1.482-1.436-2.842-2.5-4-1.127-1.227-4-3-4-3v-.5s3.979.833 6 1c.997.082 2 .082 3 0 2.02-.167 6-1 6-1v.5s-2.873 1.773-4 3c-1.064 1.158-1.973 2.518-2.5 4-.45 1.266-.5 4-.5 4v1s.927-2.966 2-4c1.45-1.397 3.487-2.454 5.5-2.5 1.795-.041 3.679.785 5 2 1.097 1.01 2 2.509 2 4 0 1.863-1.306 3.569-2.5 5-1.068 1.28-2.655 2.02-4 3-1.157.847-2.406 1.573-3.5 2.5-1.079.914-2.199 1.834-3 3-.929 1.353-1.5 2-2 4.5"/></g></svg>